<svg width="498" height="372" viewBox="0 0 498 372" fill="none" xmlns="http://www.w3.org/2000/svg">
<g filter="url(#filter0_d_101_232)">
<rect x="22" y="18" width="454" height="328.698" rx="21" stroke="black" stroke-width="4" shape-rendering="crispEdges"/>
<path d="M286.474 160.99L334.025 208.541C336.22 210.737 336.22 214.296 334.025 216.491L317.277 233.239C315.795 234.721 313.385 234.699 311.93 233.19L263.989 183.474" stroke="#2A2A2A" stroke-width="11.4839" stroke-linecap="round"/>
<path d="M231.2 62.6211C267.561 62.6211 296.779 91.2832 296.779 126.326C296.779 138.624 293.197 150.101 286.982 159.84C285.647 161.932 284.19 163.944 282.621 165.867C277.901 171.651 272.166 176.626 265.673 180.531C255.667 186.55 243.864 190.032 231.2 190.032C194.84 190.032 165.621 161.369 165.621 126.326C165.621 91.2832 194.84 62.6211 231.2 62.6211Z" stroke="#2A2A2A" stroke-width="11.2421" stroke-linejoin="round"/>
<path d="M116.536 314H110.872L109.4 309.232H102.168L100.664 314H95.128L102.552 292.88H109.144L116.536 314ZM103.192 305.488H108.376L105.784 296.944L103.192 305.488ZM118.608 314V298H123.472L123.632 301.104C124.144 299.973 124.859 299.12 125.776 298.544C126.715 297.968 127.792 297.68 129.008 297.68C130.203 297.68 131.238 297.947 132.112 298.48C132.987 299.013 133.638 299.803 134.064 300.848C134.406 300.144 134.843 299.557 135.376 299.088C135.931 298.619 136.56 298.267 137.264 298.032C137.968 297.797 138.694 297.68 139.44 297.68C140.507 297.68 141.446 297.893 142.256 298.32C143.067 298.725 143.707 299.355 144.176 300.208C144.667 301.04 144.912 302.085 144.912 303.344V314H139.472V304.592C139.472 303.568 139.27 302.853 138.864 302.448C138.48 302.043 137.958 301.84 137.296 301.84C136.763 301.84 136.272 301.979 135.824 302.256C135.398 302.512 135.067 302.907 134.832 303.44C134.598 303.973 134.48 304.645 134.48 305.456V314H129.04V304.592C129.04 303.568 128.838 302.853 128.432 302.448C128.027 302.043 127.504 301.84 126.864 301.84C126.374 301.84 125.904 301.968 125.456 302.224C125.03 302.48 124.688 302.885 124.432 303.44C124.176 303.973 124.048 304.677 124.048 305.552V314H118.608ZM148.733 320.72V298H153.629L153.917 303.792L153.277 303.12C153.427 302.053 153.757 301.115 154.269 300.304C154.781 299.493 155.443 298.853 156.253 298.384C157.064 297.915 157.992 297.68 159.037 297.68C160.36 297.68 161.512 298.011 162.493 298.672C163.475 299.312 164.232 300.251 164.765 301.488C165.32 302.704 165.597 304.187 165.597 305.936C165.597 307.685 165.32 309.189 164.765 310.448C164.211 311.707 163.432 312.667 162.429 313.328C161.448 313.989 160.296 314.32 158.973 314.32C157.523 314.32 156.349 313.893 155.453 313.04C154.557 312.165 153.96 311.067 153.661 309.744L154.173 308.976V320.72H148.733ZM157.117 310.32C158.056 310.32 158.792 309.979 159.325 309.296C159.859 308.592 160.125 307.493 160.125 306C160.125 304.507 159.859 303.419 159.325 302.736C158.813 302.032 158.088 301.68 157.149 301.68C156.552 301.68 156.029 301.851 155.581 302.192C155.133 302.512 154.781 302.992 154.525 303.632C154.291 304.272 154.173 305.061 154.173 306C154.173 306.896 154.28 307.675 154.493 308.336C154.728 308.976 155.069 309.467 155.517 309.808C155.965 310.149 156.499 310.32 157.117 310.32ZM174.172 291.216V308.56C174.172 309.264 174.289 309.765 174.524 310.064C174.758 310.363 175.153 310.512 175.708 310.512C176.028 310.512 176.294 310.491 176.508 310.448C176.721 310.405 176.977 310.341 177.276 310.256L176.924 313.52C176.54 313.755 176.038 313.947 175.42 314.096C174.801 314.245 174.193 314.32 173.596 314.32C171.889 314.32 170.652 313.925 169.884 313.136C169.116 312.347 168.732 311.056 168.732 309.264V291.216H174.172ZM181.985 296.144C180.875 296.144 180.065 295.941 179.553 295.536C179.062 295.109 178.817 294.448 178.817 293.552C178.817 292.635 179.062 291.973 179.553 291.568C180.065 291.141 180.875 290.928 181.985 290.928C183.073 290.928 183.873 291.141 184.385 291.568C184.897 291.973 185.153 292.635 185.153 293.552C185.153 294.448 184.897 295.109 184.385 295.536C183.873 295.941 183.073 296.144 181.985 296.144ZM184.705 298V314H179.265V298H184.705ZM197.505 303.856C197.505 303.109 197.292 302.523 196.865 302.096C196.46 301.648 195.905 301.424 195.201 301.424C194.497 301.424 193.889 301.605 193.377 301.968C192.886 302.309 192.545 302.928 192.353 303.824L187.745 302.736C188.044 301.2 188.833 299.973 190.113 299.056C191.393 298.139 193.196 297.68 195.521 297.68C197.078 297.68 198.401 297.915 199.489 298.384C200.598 298.832 201.441 299.515 202.017 300.432C202.614 301.328 202.913 302.437 202.913 303.76V309.616C202.913 310.448 203.286 310.864 204.033 310.864C204.417 310.864 204.726 310.821 204.961 310.736L204.641 313.84C204.001 314.139 203.222 314.288 202.305 314.288C201.473 314.288 200.737 314.16 200.097 313.904C199.457 313.627 198.956 313.221 198.593 312.688C198.23 312.133 198.049 311.44 198.049 310.608V310.416L198.657 310.192C198.657 311.109 198.38 311.877 197.825 312.496C197.292 313.115 196.588 313.573 195.713 313.872C194.86 314.171 193.964 314.32 193.025 314.32C191.937 314.32 190.988 314.149 190.177 313.808C189.366 313.467 188.737 312.976 188.289 312.336C187.862 311.675 187.649 310.864 187.649 309.904C187.649 308.752 187.99 307.803 188.673 307.056C189.377 306.288 190.476 305.755 191.969 305.456L198.017 304.208L197.985 307.088L194.913 307.728C194.273 307.856 193.793 308.048 193.473 308.304C193.174 308.539 193.025 308.901 193.025 309.392C193.025 309.861 193.196 310.213 193.537 310.448C193.878 310.683 194.284 310.8 194.753 310.8C195.116 310.8 195.457 310.747 195.777 310.64C196.118 310.533 196.417 310.373 196.673 310.16C196.929 309.925 197.132 309.637 197.281 309.296C197.43 308.955 197.505 308.549 197.505 308.08V303.856ZM212.871 314.32C211.549 314.32 210.386 314 209.383 313.36C208.402 312.699 207.634 311.749 207.079 310.512C206.546 309.275 206.279 307.792 206.279 306.064C206.279 304.272 206.557 302.757 207.111 301.52C207.687 300.283 208.477 299.333 209.479 298.672C210.503 298.011 211.677 297.68 212.999 297.68C214.45 297.68 215.613 298.128 216.487 299.024C217.383 299.899 217.959 301.019 218.215 302.384L217.703 303.056V291.216H223.143V314H218.279L217.927 308.56L218.567 309.04C218.439 310.107 218.109 311.035 217.575 311.824C217.063 312.613 216.402 313.232 215.591 313.68C214.802 314.107 213.895 314.32 212.871 314.32ZM214.759 310.32C215.378 310.32 215.901 310.16 216.327 309.84C216.775 309.499 217.117 308.997 217.351 308.336C217.586 307.675 217.703 306.864 217.703 305.904C217.703 305.008 217.586 304.251 217.351 303.632C217.138 302.992 216.807 302.512 216.359 302.192C215.933 301.851 215.41 301.68 214.791 301.68C213.853 301.68 213.106 302.032 212.551 302.736C212.018 303.419 211.751 304.507 211.751 306C211.751 307.493 212.018 308.592 212.551 309.296C213.085 309.979 213.821 310.32 214.759 310.32ZM234.662 297.68C236.347 297.68 237.819 298.011 239.078 298.672C240.358 299.312 241.35 300.261 242.054 301.52C242.779 302.757 243.142 304.251 243.142 306C243.142 307.749 242.779 309.253 242.054 310.512C241.35 311.749 240.358 312.699 239.078 313.36C237.819 314 236.347 314.32 234.662 314.32C233.019 314.32 231.558 314 230.278 313.36C228.998 312.699 227.995 311.749 227.27 310.512C226.566 309.253 226.214 307.749 226.214 306C226.214 304.251 226.566 302.757 227.27 301.52C227.995 300.261 228.998 299.312 230.278 298.672C231.558 298.011 233.019 297.68 234.662 297.68ZM234.662 301.552C234.043 301.552 233.51 301.701 233.062 302C232.614 302.299 232.272 302.779 232.038 303.44C231.803 304.101 231.686 304.955 231.686 306C231.686 307.045 231.803 307.899 232.038 308.56C232.272 309.2 232.614 309.68 233.062 310C233.51 310.299 234.043 310.448 234.662 310.448C235.302 310.448 235.846 310.299 236.294 310C236.742 309.68 237.083 309.2 237.318 308.56C237.552 307.899 237.67 307.045 237.67 306C237.67 304.955 237.552 304.101 237.318 303.44C237.083 302.779 236.742 302.299 236.294 302C235.846 301.701 235.302 301.552 234.662 301.552ZM246.202 314V298H251.002L251.226 301.456C251.631 300.261 252.229 299.333 253.018 298.672C253.829 298.011 254.853 297.68 256.09 297.68C256.495 297.68 256.837 297.712 257.114 297.776C257.413 297.84 257.647 297.925 257.818 298.032L257.274 302.512C257.061 302.427 256.783 302.363 256.442 302.32C256.122 302.256 255.727 302.224 255.258 302.224C254.618 302.224 254.021 302.363 253.466 302.64C252.911 302.917 252.463 303.333 252.122 303.888C251.802 304.421 251.642 305.104 251.642 305.936V314H246.202ZM274.496 314.32C273.174 314.32 272.011 314 271.008 313.36C270.027 312.699 269.259 311.749 268.704 310.512C268.171 309.275 267.904 307.792 267.904 306.064C267.904 304.272 268.182 302.757 268.736 301.52C269.312 300.283 270.102 299.333 271.104 298.672C272.128 298.011 273.302 297.68 274.624 297.68C276.075 297.68 277.238 298.128 278.112 299.024C279.008 299.899 279.584 301.019 279.84 302.384L279.328 303.056V291.216H284.768V314H279.904L279.552 308.56L280.192 309.04C280.064 310.107 279.734 311.035 279.2 311.824C278.688 312.613 278.027 313.232 277.216 313.68C276.427 314.107 275.52 314.32 274.496 314.32ZM276.384 310.32C277.003 310.32 277.526 310.16 277.952 309.84C278.4 309.499 278.742 308.997 278.976 308.336C279.211 307.675 279.328 306.864 279.328 305.904C279.328 305.008 279.211 304.251 278.976 303.632C278.763 302.992 278.432 302.512 277.984 302.192C277.558 301.851 277.035 301.68 276.416 301.68C275.478 301.68 274.731 302.032 274.176 302.736C273.643 303.419 273.376 304.507 273.376 306C273.376 307.493 273.643 308.592 274.176 309.296C274.71 309.979 275.446 310.32 276.384 310.32ZM296.479 314.32C294.708 314.32 293.172 313.989 291.871 313.328C290.591 312.667 289.599 311.717 288.895 310.48C288.191 309.243 287.839 307.749 287.839 306C287.839 304.251 288.191 302.757 288.895 301.52C289.599 300.283 290.58 299.333 291.839 298.672C293.119 298.011 294.58 297.68 296.223 297.68C297.908 297.68 299.337 298.011 300.511 298.672C301.705 299.312 302.612 300.208 303.231 301.36C303.849 302.491 304.159 303.792 304.159 305.264C304.159 305.648 304.148 306.032 304.127 306.416C304.105 306.8 304.073 307.12 304.031 307.376H291.359V304.464H301.631L299.039 305.456C299.039 304.176 298.804 303.195 298.335 302.512C297.887 301.829 297.183 301.488 296.223 301.488C295.54 301.488 294.953 301.648 294.463 301.968C293.993 302.288 293.631 302.789 293.375 303.472C293.14 304.155 293.023 305.029 293.023 306.096C293.023 307.141 293.161 307.995 293.439 308.656C293.716 309.296 294.111 309.765 294.623 310.064C295.135 310.341 295.753 310.48 296.479 310.48C297.289 310.48 297.929 310.32 298.399 310C298.889 309.68 299.252 309.232 299.487 308.656L303.839 310.096C303.54 311.013 303.017 311.792 302.271 312.432C301.545 313.051 300.671 313.52 299.647 313.84C298.644 314.16 297.588 314.32 296.479 314.32ZM333.94 292.88V297.136H327.06V314H321.556V297.136H314.644V292.88H333.94ZM341.541 314.32C339.771 314.32 338.235 313.989 336.933 313.328C335.653 312.667 334.661 311.717 333.957 310.48C333.253 309.243 332.901 307.749 332.901 306C332.901 304.251 333.253 302.757 333.957 301.52C334.661 300.283 335.643 299.333 336.901 298.672C338.181 298.011 339.643 297.68 341.285 297.68C342.971 297.68 344.4 298.011 345.573 298.672C346.768 299.312 347.675 300.208 348.293 301.36C348.912 302.491 349.221 303.792 349.221 305.264C349.221 305.648 349.211 306.032 349.189 306.416C349.168 306.8 349.136 307.12 349.093 307.376H336.421V304.464H346.693L344.101 305.456C344.101 304.176 343.867 303.195 343.397 302.512C342.949 301.829 342.245 301.488 341.285 301.488C340.603 301.488 340.016 301.648 339.525 301.968C339.056 302.288 338.693 302.789 338.437 303.472C338.203 304.155 338.085 305.029 338.085 306.096C338.085 307.141 338.224 307.995 338.501 308.656C338.779 309.296 339.173 309.765 339.685 310.064C340.197 310.341 340.816 310.48 341.541 310.48C342.352 310.48 342.992 310.32 343.461 310C343.952 309.68 344.315 309.232 344.549 308.656L348.901 310.096C348.603 311.013 348.08 311.792 347.333 312.432C346.608 313.051 345.733 313.52 344.709 313.84C343.707 314.16 342.651 314.32 341.541 314.32ZM356.156 298L360.06 305.2L361.852 305.04L368.156 314H361.916L357.884 306.704H355.996L349.884 298H356.156ZM368.028 298L361.98 306.64L359.964 306.512L355.772 314H349.66L356.092 304.976L357.948 305.232L361.916 298H368.028ZM376.984 292.912V308.304C376.984 309.072 377.165 309.627 377.528 309.968C377.912 310.288 378.434 310.448 379.096 310.448C379.608 310.448 380.045 310.395 380.408 310.288C380.792 310.16 381.133 309.979 381.432 309.744L382.008 313.104C381.474 313.488 380.802 313.787 379.992 314C379.181 314.213 378.349 314.32 377.496 314.32C376.28 314.32 375.224 314.149 374.328 313.808C373.453 313.467 372.77 312.923 372.28 312.176C371.81 311.429 371.565 310.437 371.544 309.2V294.416L376.984 292.912ZM381.752 298V301.872H368.792V298H381.752ZM391.881 297.68C393.566 297.68 395.038 298.011 396.297 298.672C397.577 299.312 398.569 300.261 399.273 301.52C399.998 302.757 400.361 304.251 400.361 306C400.361 307.749 399.998 309.253 399.273 310.512C398.569 311.749 397.577 312.699 396.297 313.36C395.038 314 393.566 314.32 391.881 314.32C390.238 314.32 388.777 314 387.497 313.36C386.217 312.699 385.214 311.749 384.489 310.512C383.785 309.253 383.433 307.749 383.433 306C383.433 304.251 383.785 302.757 384.489 301.52C385.214 300.261 386.217 299.312 387.497 298.672C388.777 298.011 390.238 297.68 391.881 297.68ZM391.881 301.552C391.262 301.552 390.729 301.701 390.281 302C389.833 302.299 389.491 302.779 389.257 303.44C389.022 304.101 388.905 304.955 388.905 306C388.905 307.045 389.022 307.899 389.257 308.56C389.491 309.2 389.833 309.68 390.281 310C390.729 310.299 391.262 310.448 391.881 310.448C392.521 310.448 393.065 310.299 393.513 310C393.961 309.68 394.302 309.2 394.537 308.56C394.771 307.899 394.889 307.045 394.889 306C394.889 304.955 394.771 304.101 394.537 303.44C394.302 302.779 393.961 302.299 393.513 302C393.065 301.701 392.521 301.552 391.881 301.552Z" fill="black"/>
</g>
<defs>
<filter id="filter0_d_101_232" x="0.700001" y="0.700001" width="496.6" height="371.298" filterUnits="userSpaceOnUse" color-interpolation-filters="sRGB">
<feFlood flood-opacity="0" result="BackgroundImageFix"/>
<feColorMatrix in="SourceAlpha" type="matrix" values="0 0 0 0 0 0 0 0 0 0 0 0 0 0 0 0 0 0 127 0" result="hardAlpha"/>
<feOffset dy="4"/>
<feGaussianBlur stdDeviation="9.65"/>
<feComposite in2="hardAlpha" operator="out"/>
<feColorMatrix type="matrix" values="0 0 0 0 0 0 0 0 0 0 0 0 0 0 0 0 0 0 0.75 0"/>
<feBlend mode="normal" in2="BackgroundImageFix" result="effect1_dropShadow_101_232"/>
<feBlend mode="normal" in="SourceGraphic" in2="effect1_dropShadow_101_232" result="shape"/>
</filter>
</defs>
</svg>
