<svg width="498" height="372" viewBox="0 0 498 372" fill="none" xmlns="http://www.w3.org/2000/svg">
<g filter="url(#filter0_d_101_228)">
<rect x="22" y="18" width="454" height="328.698" rx="21" stroke="black" stroke-width="4" shape-rendering="crispEdges"/>
<path d="M299.399 160.68V107.236C299.399 106.299 298.639 105.539 297.702 105.539H200.146C199.209 105.539 198.449 106.299 198.449 107.236V153.893M299.399 160.68V181.888C299.399 182.825 298.639 183.584 297.702 183.584H200.146C199.209 183.584 198.449 182.825 198.449 181.888V153.893M299.399 160.68L274.322 133.986C273.658 133.278 272.537 133.271 271.864 133.97L252.445 154.136C251.714 154.895 250.475 154.812 249.853 153.961L226.888 122.575C226.233 121.681 224.91 121.644 224.207 122.501L198.449 153.893M198.449 213.275H299.399M324 76.6966V242.118C324 243.055 323.24 243.815 322.303 243.815H174.697C173.76 243.815 173 243.055 173 242.118V76.6966C173 75.7596 173.76 75 174.697 75H322.303C323.24 75 324 75.7596 324 76.6966Z" stroke="#2A2A2A" stroke-width="9" stroke-linecap="round"/>
<path d="M82.296 290.88C85.6027 290.88 88.1307 291.797 89.88 293.632C91.6507 295.467 92.536 298.069 92.536 301.44C92.536 304.811 91.6507 307.413 89.88 309.248C88.1307 311.083 85.6027 312 82.296 312H73.336V290.88H82.296ZM81.752 307.84C83.544 307.84 84.8453 307.307 85.656 306.24C86.488 305.152 86.904 303.552 86.904 301.44C86.904 299.328 86.488 297.739 85.656 296.672C84.8453 295.584 83.544 295.04 81.752 295.04H78.84V307.84H81.752ZM103.729 312.32C101.958 312.32 100.422 311.989 99.1208 311.328C97.8408 310.667 96.8488 309.717 96.1448 308.48C95.4408 307.243 95.0888 305.749 95.0888 304C95.0888 302.251 95.4408 300.757 96.1448 299.52C96.8488 298.283 97.8301 297.333 99.0888 296.672C100.369 296.011 101.83 295.68 103.473 295.68C105.158 295.68 106.587 296.011 107.761 296.672C108.955 297.312 109.862 298.208 110.481 299.36C111.099 300.491 111.409 301.792 111.409 303.264C111.409 303.648 111.398 304.032 111.377 304.416C111.355 304.8 111.323 305.12 111.281 305.376H98.6088V302.464H108.881L106.289 303.456C106.289 302.176 106.054 301.195 105.585 300.512C105.137 299.829 104.433 299.488 103.473 299.488C102.79 299.488 102.203 299.648 101.713 299.968C101.243 300.288 100.881 300.789 100.625 301.472C100.39 302.155 100.273 303.029 100.273 304.096C100.273 305.141 100.411 305.995 100.689 306.656C100.966 307.296 101.361 307.765 101.873 308.064C102.385 308.341 103.003 308.48 103.729 308.48C104.539 308.48 105.179 308.32 105.649 308C106.139 307.68 106.502 307.232 106.737 306.656L111.089 308.096C110.79 309.013 110.267 309.792 109.521 310.432C108.795 311.051 107.921 311.52 106.897 311.84C105.894 312.16 104.838 312.32 103.729 312.32ZM121.172 312.32C119.572 312.32 118.079 312.064 116.692 311.552C115.327 311.019 114.196 310.261 113.3 309.28L115.86 306.272C116.393 306.955 117.097 307.531 117.972 308C118.868 308.448 119.86 308.672 120.948 308.672C121.609 308.672 122.153 308.576 122.58 308.384C123.007 308.192 123.22 307.893 123.22 307.488C123.22 307.189 123.113 306.955 122.9 306.784C122.687 306.592 122.26 306.432 121.62 306.304L119.38 305.856C117.375 305.451 115.945 304.853 115.092 304.064C114.26 303.253 113.844 302.197 113.844 300.896C113.844 300.021 114.111 299.189 114.644 298.4C115.177 297.589 115.999 296.939 117.108 296.448C118.217 295.936 119.636 295.68 121.364 295.68C122.985 295.68 124.415 295.915 125.652 296.384C126.889 296.853 127.871 297.536 128.596 298.432L126.004 301.376C125.492 300.736 124.831 300.235 124.02 299.872C123.209 299.509 122.399 299.328 121.588 299.328C121.076 299.328 120.639 299.381 120.276 299.488C119.935 299.573 119.679 299.701 119.508 299.872C119.337 300.043 119.252 300.256 119.252 300.512C119.252 300.789 119.38 301.035 119.636 301.248C119.913 301.44 120.415 301.611 121.14 301.76L124.052 302.336C125.695 302.635 126.879 303.179 127.604 303.968C128.329 304.757 128.692 305.707 128.692 306.816C128.692 307.861 128.415 308.8 127.86 309.632C127.305 310.464 126.473 311.125 125.364 311.616C124.255 312.085 122.857 312.32 121.172 312.32ZM139.005 295.68C140.626 295.68 141.97 295.915 143.037 296.384C144.125 296.832 144.967 297.44 145.565 298.208C146.183 298.955 146.567 299.765 146.717 300.64L141.693 302.304C141.543 301.387 141.266 300.704 140.861 300.256C140.477 299.787 139.911 299.552 139.165 299.552C138.482 299.552 137.906 299.712 137.437 300.032C136.989 300.331 136.647 300.821 136.413 301.504C136.178 302.165 136.061 303.019 136.061 304.064C136.061 305.109 136.189 305.963 136.445 306.624C136.701 307.264 137.063 307.733 137.533 308.032C138.002 308.309 138.557 308.448 139.197 308.448C139.73 308.448 140.167 308.352 140.509 308.16C140.871 307.947 141.17 307.648 141.405 307.264C141.639 306.88 141.789 306.411 141.853 305.856L146.749 307.424C146.599 308.363 146.194 309.205 145.533 309.952C144.893 310.677 144.039 311.253 142.973 311.68C141.906 312.107 140.658 312.32 139.229 312.32C137.479 312.32 135.954 312 134.653 311.36C133.351 310.699 132.349 309.749 131.645 308.512C130.941 307.253 130.589 305.749 130.589 304C130.589 302.251 130.941 300.757 131.645 299.52C132.349 298.261 133.33 297.312 134.589 296.672C135.869 296.011 137.341 295.68 139.005 295.68ZM149.577 312V296H154.377L154.601 299.456C155.006 298.261 155.604 297.333 156.393 296.672C157.204 296.011 158.228 295.68 159.465 295.68C159.87 295.68 160.212 295.712 160.489 295.776C160.788 295.84 161.022 295.925 161.193 296.032L160.649 300.512C160.436 300.427 160.158 300.363 159.817 300.32C159.497 300.256 159.102 300.224 158.633 300.224C157.993 300.224 157.396 300.363 156.841 300.64C156.286 300.917 155.838 301.333 155.497 301.888C155.177 302.421 155.017 303.104 155.017 303.936V312H149.577ZM166.047 294.144C164.938 294.144 164.127 293.941 163.615 293.536C163.124 293.109 162.879 292.448 162.879 291.552C162.879 290.635 163.124 289.973 163.615 289.568C164.127 289.141 164.938 288.928 166.047 288.928C167.135 288.928 167.935 289.141 168.447 289.568C168.959 289.973 169.215 290.635 169.215 291.552C169.215 292.448 168.959 293.109 168.447 293.536C167.935 293.941 167.135 294.144 166.047 294.144ZM168.767 296V312H163.327V296H168.767ZM180.224 295.68C181.845 295.68 183.189 295.915 184.256 296.384C185.344 296.832 186.186 297.44 186.784 298.208C187.402 298.955 187.786 299.765 187.936 300.64L182.912 302.304C182.762 301.387 182.485 300.704 182.08 300.256C181.696 299.787 181.13 299.552 180.384 299.552C179.701 299.552 179.125 299.712 178.656 300.032C178.208 300.331 177.866 300.821 177.632 301.504C177.397 302.165 177.28 303.019 177.28 304.064C177.28 305.109 177.408 305.963 177.664 306.624C177.92 307.264 178.282 307.733 178.752 308.032C179.221 308.309 179.776 308.448 180.416 308.448C180.949 308.448 181.386 308.352 181.728 308.16C182.09 307.947 182.389 307.648 182.624 307.264C182.858 306.88 183.008 306.411 183.072 305.856L187.968 307.424C187.818 308.363 187.413 309.205 186.752 309.952C186.112 310.677 185.258 311.253 184.192 311.68C183.125 312.107 181.877 312.32 180.448 312.32C178.698 312.32 177.173 312 175.872 311.36C174.57 310.699 173.568 309.749 172.864 308.512C172.16 307.253 171.808 305.749 171.808 304C171.808 302.251 172.16 300.757 172.864 299.52C173.568 298.261 174.549 297.312 175.808 296.672C177.088 296.011 178.56 295.68 180.224 295.68ZM177.792 311.68L179.104 310.816C180.768 311.051 181.994 311.499 182.784 312.16C183.573 312.843 183.968 313.749 183.968 314.88C183.968 316.075 183.562 317.035 182.752 317.76C181.962 318.507 180.874 318.88 179.488 318.88C178.656 318.88 177.994 318.784 177.504 318.592C177.013 318.421 176.576 318.208 176.192 317.952L177.088 315.36C177.344 315.509 177.621 315.637 177.92 315.744C178.218 315.872 178.581 315.936 179.008 315.936C179.562 315.936 180.01 315.776 180.352 315.456C180.693 315.136 180.864 314.688 180.864 314.112C180.864 313.621 180.64 313.184 180.192 312.8C179.744 312.416 178.944 312.043 177.792 311.68ZM198.412 295.68C200.097 295.68 201.569 296.011 202.828 296.672C204.108 297.312 205.1 298.261 205.804 299.52C206.529 300.757 206.892 302.251 206.892 304C206.892 305.749 206.529 307.253 205.804 308.512C205.1 309.749 204.108 310.699 202.828 311.36C201.569 312 200.097 312.32 198.412 312.32C196.769 312.32 195.308 312 194.028 311.36C192.748 310.699 191.745 309.749 191.02 308.512C190.316 307.253 189.964 305.749 189.964 304C189.964 302.251 190.316 300.757 191.02 299.52C191.745 298.261 192.748 297.312 194.028 296.672C195.308 296.011 196.769 295.68 198.412 295.68ZM198.412 299.552C197.793 299.552 197.26 299.701 196.812 300C196.364 300.299 196.022 300.779 195.788 301.44C195.553 302.101 195.436 302.955 195.436 304C195.436 305.045 195.553 305.899 195.788 306.56C196.022 307.2 196.364 307.68 196.812 308C197.26 308.299 197.793 308.448 198.412 308.448C199.052 308.448 199.596 308.299 200.044 308C200.492 307.68 200.833 307.2 201.068 306.56C201.302 305.899 201.42 305.045 201.42 304C201.42 302.955 201.302 302.101 201.068 301.44C200.833 300.779 200.492 300.299 200.044 300C199.596 299.701 199.052 299.552 198.412 299.552ZM204.748 289.024C204.705 290.155 204.502 291.104 204.14 291.872C203.798 292.619 203.329 293.184 202.732 293.568C202.156 293.931 201.516 294.112 200.812 294.112C200.214 294.112 199.692 294.027 199.244 293.856C198.817 293.664 198.444 293.451 198.124 293.216C197.804 292.96 197.505 292.747 197.228 292.576C196.95 292.384 196.652 292.288 196.332 292.288C195.969 292.288 195.692 292.437 195.5 292.736C195.308 293.035 195.18 293.483 195.116 294.08H192.044C192.108 292.373 192.524 291.104 193.292 290.272C194.06 289.419 195.041 288.992 196.236 288.992C196.812 288.992 197.302 289.088 197.708 289.28C198.113 289.451 198.465 289.664 198.764 289.92C199.062 290.155 199.34 290.368 199.596 290.56C199.873 290.731 200.161 290.816 200.46 290.816C200.844 290.816 201.121 290.667 201.292 290.368C201.484 290.069 201.612 289.621 201.676 289.024H204.748ZM217.76 312.32C215.989 312.32 214.453 311.989 213.152 311.328C211.872 310.667 210.88 309.717 210.176 308.48C209.472 307.243 209.12 305.749 209.12 304C209.12 302.251 209.472 300.757 210.176 299.52C210.88 298.283 211.861 297.333 213.12 296.672C214.4 296.011 215.861 295.68 217.504 295.68C219.189 295.68 220.619 296.011 221.792 296.672C222.987 297.312 223.893 298.208 224.512 299.36C225.131 300.491 225.44 301.792 225.44 303.264C225.44 303.648 225.429 304.032 225.408 304.416C225.387 304.8 225.355 305.12 225.312 305.376H212.64V302.464H222.912L220.32 303.456C220.32 302.176 220.085 301.195 219.616 300.512C219.168 299.829 218.464 299.488 217.504 299.488C216.821 299.488 216.235 299.648 215.744 299.968C215.275 300.288 214.912 300.789 214.656 301.472C214.421 302.155 214.304 303.029 214.304 304.096C214.304 305.141 214.443 305.995 214.72 306.656C214.997 307.296 215.392 307.765 215.904 308.064C216.416 308.341 217.035 308.48 217.76 308.48C218.571 308.48 219.211 308.32 219.68 308C220.171 307.68 220.533 307.232 220.768 306.656L225.12 308.096C224.821 309.013 224.299 309.792 223.552 310.432C222.827 311.051 221.952 311.52 220.928 311.84C219.925 312.16 218.869 312.32 217.76 312.32ZM235.203 312.32C233.603 312.32 232.11 312.064 230.723 311.552C229.358 311.019 228.227 310.261 227.331 309.28L229.891 306.272C230.425 306.955 231.129 307.531 232.003 308C232.899 308.448 233.891 308.672 234.979 308.672C235.641 308.672 236.185 308.576 236.611 308.384C237.038 308.192 237.251 307.893 237.251 307.488C237.251 307.189 237.145 306.955 236.931 306.784C236.718 306.592 236.291 306.432 235.651 306.304L233.411 305.856C231.406 305.451 229.977 304.853 229.123 304.064C228.291 303.253 227.875 302.197 227.875 300.896C227.875 300.021 228.142 299.189 228.675 298.4C229.209 297.589 230.03 296.939 231.139 296.448C232.249 295.936 233.667 295.68 235.395 295.68C237.017 295.68 238.446 295.915 239.683 296.384C240.921 296.853 241.902 297.536 242.627 298.432L240.035 301.376C239.523 300.736 238.862 300.235 238.051 299.872C237.241 299.509 236.43 299.328 235.619 299.328C235.107 299.328 234.67 299.381 234.307 299.488C233.966 299.573 233.71 299.701 233.539 299.872C233.369 300.043 233.283 300.256 233.283 300.512C233.283 300.789 233.411 301.035 233.667 301.248C233.945 301.44 234.446 301.611 235.171 301.76L238.083 302.336C239.726 302.635 240.91 303.179 241.635 303.968C242.361 304.757 242.723 305.707 242.723 306.816C242.723 307.861 242.446 308.8 241.891 309.632C241.337 310.464 240.505 311.125 239.395 311.616C238.286 312.085 236.889 312.32 235.203 312.32ZM260.59 312.32C259.267 312.32 258.105 312 257.102 311.36C256.121 310.699 255.353 309.749 254.798 308.512C254.265 307.275 253.998 305.792 253.998 304.064C253.998 302.272 254.275 300.757 254.83 299.52C255.406 298.283 256.195 297.333 257.198 296.672C258.222 296.011 259.395 295.68 260.718 295.68C262.169 295.68 263.331 296.128 264.206 297.024C265.102 297.899 265.678 299.019 265.934 300.384L265.422 301.056V289.216H270.862V312H265.998L265.646 306.56L266.286 307.04C266.158 308.107 265.827 309.035 265.294 309.824C264.782 310.613 264.121 311.232 263.31 311.68C262.521 312.107 261.614 312.32 260.59 312.32ZM262.478 308.32C263.097 308.32 263.619 308.16 264.046 307.84C264.494 307.499 264.835 306.997 265.07 306.336C265.305 305.675 265.422 304.864 265.422 303.904C265.422 303.008 265.305 302.251 265.07 301.632C264.857 300.992 264.526 300.512 264.078 300.192C263.651 299.851 263.129 299.68 262.51 299.68C261.571 299.68 260.825 300.032 260.27 300.736C259.737 301.419 259.47 302.507 259.47 304C259.47 305.493 259.737 306.592 260.27 307.296C260.803 307.979 261.539 308.32 262.478 308.32ZM282.573 312.32C280.802 312.32 279.266 311.989 277.965 311.328C276.685 310.667 275.693 309.717 274.989 308.48C274.285 307.243 273.933 305.749 273.933 304C273.933 302.251 274.285 300.757 274.989 299.52C275.693 298.283 276.674 297.333 277.933 296.672C279.213 296.011 280.674 295.68 282.317 295.68C284.002 295.68 285.431 296.011 286.605 296.672C287.799 297.312 288.706 298.208 289.325 299.36C289.943 300.491 290.253 301.792 290.253 303.264C290.253 303.648 290.242 304.032 290.221 304.416C290.199 304.8 290.167 305.12 290.125 305.376H277.453V302.464H287.725L285.133 303.456C285.133 302.176 284.898 301.195 284.429 300.512C283.981 299.829 283.277 299.488 282.317 299.488C281.634 299.488 281.047 299.648 280.557 299.968C280.087 300.288 279.725 300.789 279.469 301.472C279.234 302.155 279.117 303.029 279.117 304.096C279.117 305.141 279.255 305.995 279.533 306.656C279.81 307.296 280.205 307.765 280.717 308.064C281.229 308.341 281.847 308.48 282.573 308.48C283.383 308.48 284.023 308.32 284.493 308C284.983 307.68 285.346 307.232 285.581 306.656L289.933 308.096C289.634 309.013 289.111 309.792 288.365 310.432C287.639 311.051 286.765 311.52 285.741 311.84C284.738 312.16 283.682 312.32 282.573 312.32ZM305.172 294.144C304.063 294.144 303.252 293.941 302.74 293.536C302.249 293.109 302.004 292.448 302.004 291.552C302.004 290.635 302.249 289.973 302.74 289.568C303.252 289.141 304.063 288.928 305.172 288.928C306.26 288.928 307.06 289.141 307.572 289.568C308.084 289.973 308.34 290.635 308.34 291.552C308.34 292.448 308.084 293.109 307.572 293.536C307.06 293.941 306.26 294.144 305.172 294.144ZM307.892 296V312H302.452V296H307.892ZM311.765 312V296H316.629L316.789 299.104C317.301 297.973 318.015 297.12 318.933 296.544C319.871 295.968 320.949 295.68 322.165 295.68C323.359 295.68 324.394 295.947 325.269 296.48C326.143 297.013 326.794 297.803 327.221 298.848C327.562 298.144 327.999 297.557 328.533 297.088C329.087 296.619 329.717 296.267 330.421 296.032C331.125 295.797 331.85 295.68 332.597 295.68C333.663 295.68 334.602 295.893 335.413 296.32C336.223 296.725 336.863 297.355 337.333 298.208C337.823 299.04 338.069 300.085 338.069 301.344V312H332.629V302.592C332.629 301.568 332.426 300.853 332.021 300.448C331.637 300.043 331.114 299.84 330.453 299.84C329.919 299.84 329.429 299.979 328.981 300.256C328.554 300.512 328.223 300.907 327.989 301.44C327.754 301.973 327.637 302.645 327.637 303.456V312H322.197V302.592C322.197 301.568 321.994 300.853 321.589 300.448C321.183 300.043 320.661 299.84 320.021 299.84C319.53 299.84 319.061 299.968 318.613 300.224C318.186 300.48 317.845 300.885 317.589 301.44C317.333 301.973 317.205 302.677 317.205 303.552V312H311.765ZM350.818 301.856C350.818 301.109 350.604 300.523 350.178 300.096C349.772 299.648 349.218 299.424 348.514 299.424C347.81 299.424 347.202 299.605 346.69 299.968C346.199 300.309 345.858 300.928 345.666 301.824L341.058 300.736C341.356 299.2 342.146 297.973 343.426 297.056C344.706 296.139 346.508 295.68 348.834 295.68C350.391 295.68 351.714 295.915 352.802 296.384C353.911 296.832 354.754 297.515 355.33 298.432C355.927 299.328 356.226 300.437 356.226 301.76V307.616C356.226 308.448 356.599 308.864 357.346 308.864C357.73 308.864 358.039 308.821 358.274 308.736L357.954 311.84C357.314 312.139 356.535 312.288 355.618 312.288C354.786 312.288 354.05 312.16 353.41 311.904C352.77 311.627 352.268 311.221 351.906 310.688C351.543 310.133 351.362 309.44 351.362 308.608V308.416L351.97 308.192C351.97 309.109 351.692 309.877 351.138 310.496C350.604 311.115 349.9 311.573 349.026 311.872C348.172 312.171 347.276 312.32 346.338 312.32C345.25 312.32 344.3 312.149 343.49 311.808C342.679 311.467 342.05 310.976 341.602 310.336C341.175 309.675 340.962 308.864 340.962 307.904C340.962 306.752 341.303 305.803 341.986 305.056C342.69 304.288 343.788 303.755 345.282 303.456L351.33 302.208L351.298 305.088L348.226 305.728C347.586 305.856 347.106 306.048 346.786 306.304C346.487 306.539 346.338 306.901 346.338 307.392C346.338 307.861 346.508 308.213 346.85 308.448C347.191 308.683 347.596 308.8 348.066 308.8C348.428 308.8 348.77 308.747 349.09 308.64C349.431 308.533 349.73 308.373 349.986 308.16C350.242 307.925 350.444 307.637 350.594 307.296C350.743 306.955 350.818 306.549 350.818 306.08V301.856ZM376.096 291.712L376.544 295.36C376.416 295.317 376.288 295.296 376.16 295.296C376.032 295.275 375.904 295.264 375.776 295.264C374.838 295.264 374.134 295.499 373.664 295.968C373.216 296.416 372.992 296.981 372.992 297.664L371.072 296.96C371.072 296.085 371.232 295.243 371.552 294.432C371.872 293.621 372.363 292.96 373.024 292.448C373.707 291.936 374.56 291.68 375.584 291.68C375.648 291.68 375.723 291.68 375.808 291.68C375.915 291.68 376.011 291.691 376.096 291.712ZM370.592 308.448C372.448 308.448 373.867 308.843 374.848 309.632C375.851 310.4 376.352 311.509 376.352 312.96C376.352 314.283 375.99 315.381 375.264 316.256C374.539 317.131 373.515 317.781 372.192 318.208C370.891 318.656 369.344 318.88 367.552 318.88C364.651 318.88 362.56 318.517 361.28 317.792C360 317.067 359.36 316.085 359.36 314.848C359.36 313.952 359.723 313.227 360.448 312.672C361.174 312.117 362.379 311.819 364.064 311.776L363.936 312.288C362.635 312.117 361.664 311.733 361.024 311.136C360.384 310.539 360.064 309.728 360.064 308.704C360.064 307.68 360.47 306.848 361.28 306.208C362.091 305.568 363.168 305.216 364.512 305.152L366.496 306.08H365.984C365.152 306.123 364.566 306.261 364.224 306.496C363.883 306.731 363.712 307.019 363.712 307.36C363.712 307.723 363.862 308 364.16 308.192C364.459 308.363 364.907 308.448 365.504 308.448H370.592ZM367.584 315.36C368.608 315.36 369.451 315.285 370.112 315.136C370.795 315.008 371.307 314.816 371.648 314.56C371.99 314.325 372.16 314.048 372.16 313.728C372.16 313.408 372.043 313.152 371.808 312.96C371.574 312.789 371.147 312.704 370.528 312.704H364.8C364.395 312.704 364.064 312.811 363.808 313.024C363.574 313.237 363.456 313.504 363.456 313.824C363.456 314.315 363.819 314.688 364.544 314.944C365.27 315.221 366.283 315.36 367.584 315.36ZM367.776 295.68C369.398 295.68 370.784 295.893 371.936 296.32C373.088 296.747 373.963 297.365 374.56 298.176C375.179 298.965 375.488 299.947 375.488 301.12C375.488 302.272 375.179 303.253 374.56 304.064C373.963 304.875 373.088 305.493 371.936 305.92C370.784 306.325 369.398 306.528 367.776 306.528C365.238 306.528 363.307 306.059 361.984 305.12C360.683 304.181 360.032 302.848 360.032 301.12C360.032 299.947 360.331 298.965 360.928 298.176C361.547 297.365 362.432 296.747 363.584 296.32C364.736 295.893 366.134 295.68 367.776 295.68ZM367.776 298.784C367.072 298.784 366.496 298.987 366.048 299.392C365.622 299.797 365.408 300.373 365.408 301.12C365.408 301.845 365.622 302.411 366.048 302.816C366.496 303.221 367.072 303.424 367.776 303.424C368.459 303.424 369.024 303.221 369.472 302.816C369.92 302.411 370.144 301.845 370.144 301.12C370.144 300.373 369.92 299.797 369.472 299.392C369.024 298.987 368.459 298.784 367.776 298.784ZM386.323 312.32C384.552 312.32 383.016 311.989 381.715 311.328C380.435 310.667 379.443 309.717 378.739 308.48C378.035 307.243 377.683 305.749 377.683 304C377.683 302.251 378.035 300.757 378.739 299.52C379.443 298.283 380.424 297.333 381.683 296.672C382.963 296.011 384.424 295.68 386.067 295.68C387.752 295.68 389.181 296.011 390.355 296.672C391.549 297.312 392.456 298.208 393.075 299.36C393.693 300.491 394.003 301.792 394.003 303.264C394.003 303.648 393.992 304.032 393.971 304.416C393.949 304.8 393.917 305.12 393.875 305.376H381.203V302.464H391.475L388.883 303.456C388.883 302.176 388.648 301.195 388.179 300.512C387.731 299.829 387.027 299.488 386.067 299.488C385.384 299.488 384.797 299.648 384.307 299.968C383.837 300.288 383.475 300.789 383.219 301.472C382.984 302.155 382.867 303.029 382.867 304.096C382.867 305.141 383.005 305.995 383.283 306.656C383.56 307.296 383.955 307.765 384.467 308.064C384.979 308.341 385.597 308.48 386.323 308.48C387.133 308.48 387.773 308.32 388.243 308C388.733 307.68 389.096 307.232 389.331 306.656L393.683 308.096C393.384 309.013 392.861 309.792 392.115 310.432C391.389 311.051 390.515 311.52 389.491 311.84C388.488 312.16 387.432 312.32 386.323 312.32ZM397.046 312V296H401.91L402.07 299.104C402.582 297.973 403.296 297.12 404.214 296.544C405.152 295.968 406.23 295.68 407.446 295.68C408.64 295.68 409.675 295.947 410.55 296.48C411.424 297.013 412.075 297.803 412.502 298.848C412.843 298.144 413.28 297.557 413.814 297.088C414.368 296.619 414.998 296.267 415.702 296.032C416.406 295.797 417.131 295.68 417.878 295.68C418.944 295.68 419.883 295.893 420.694 296.32C421.504 296.725 422.144 297.355 422.614 298.208C423.104 299.04 423.35 300.085 423.35 301.344V312H417.91V302.592C417.91 301.568 417.707 300.853 417.302 300.448C416.918 300.043 416.395 299.84 415.734 299.84C415.2 299.84 414.71 299.979 414.262 300.256C413.835 300.512 413.504 300.907 413.27 301.44C413.035 301.973 412.918 302.645 412.918 303.456V312H407.478V302.592C407.478 301.568 407.275 300.853 406.87 300.448C406.464 300.043 405.942 299.84 405.302 299.84C404.811 299.84 404.342 299.968 403.894 300.224C403.467 300.48 403.126 300.885 402.87 301.44C402.614 301.973 402.486 302.677 402.486 303.552V312H397.046Z" fill="black"/>
</g>
<defs>
<filter id="filter0_d_101_228" x="0.700001" y="0.700001" width="496.6" height="371.298" filterUnits="userSpaceOnUse" color-interpolation-filters="sRGB">
<feFlood flood-opacity="0" result="BackgroundImageFix"/>
<feColorMatrix in="SourceAlpha" type="matrix" values="0 0 0 0 0 0 0 0 0 0 0 0 0 0 0 0 0 0 127 0" result="hardAlpha"/>
<feOffset dy="4"/>
<feGaussianBlur stdDeviation="9.65"/>
<feComposite in2="hardAlpha" operator="out"/>
<feColorMatrix type="matrix" values="0 0 0 0 0 0 0 0 0 0 0 0 0 0 0 0 0 0 0.75 0"/>
<feBlend mode="normal" in2="BackgroundImageFix" result="effect1_dropShadow_101_228"/>
<feBlend mode="normal" in="SourceGraphic" in2="effect1_dropShadow_101_228" result="shape"/>
</filter>
</defs>
</svg>
