<svg width="498" height="372" viewBox="0 0 498 372" fill="none" xmlns="http://www.w3.org/2000/svg">
<g filter="url(#filter0_d_101_229)">
<rect x="22" y="18" width="454" height="328.698" rx="21" stroke="black" stroke-width="4" shape-rendering="crispEdges"/>
<path d="M203.783 207.913L196.617 210.301C196.183 210.446 195.788 210.69 195.464 211.014L185.807 220.671C184.679 221.799 182.859 221.827 181.698 220.734L171.215 210.867C170.003 209.726 169.974 207.809 171.151 206.632L180.648 197.135C180.993 196.789 181.247 196.364 181.388 195.896L183.783 187.913M203.783 207.913L215.448 197.081C215.782 196.77 216.185 196.542 216.623 196.413L230.048 192.464C230.502 192.331 230.917 192.09 231.259 191.762L233.455 189.652M203.783 207.913L183.783 187.913M183.783 187.913L192.791 178.086C193.155 177.688 193.404 177.199 193.509 176.67L196.651 160.963C196.765 160.392 197.046 159.867 197.458 159.455L200.304 156.609M200.304 156.609L233.455 189.652M200.304 156.609L266.391 90.5217M233.455 189.652L301.174 124.616M301.174 124.616L316.339 110.051C317.552 108.886 317.547 106.945 316.328 105.785L284.998 75.9834C283.838 74.8801 282.01 74.9029 280.878 76.0349L266.391 90.5217M301.174 124.616L266.391 90.5217M284.652 182.696C263.783 182.696 255.957 182.696 255.957 200.957C255.957 219.217 263.783 219.217 284.652 219.217M298.565 182.696C319.435 182.696 329 182.696 329 200.087C329 220.957 319.435 219.217 299.435 219.217M273.348 200.957H309.87" stroke="#2A2A2A" stroke-width="10.4348" stroke-linecap="round"/>
<path d="M142.296 290.88C145.603 290.88 148.131 291.797 149.88 293.632C151.651 295.467 152.536 298.069 152.536 301.44C152.536 304.811 151.651 307.413 149.88 309.248C148.131 311.083 145.603 312 142.296 312H133.336V290.88H142.296ZM141.752 307.84C143.544 307.84 144.845 307.307 145.656 306.24C146.488 305.152 146.904 303.552 146.904 301.44C146.904 299.328 146.488 297.739 145.656 296.672C144.845 295.584 143.544 295.04 141.752 295.04H138.84V307.84H141.752ZM163.729 312.32C161.958 312.32 160.422 311.989 159.121 311.328C157.841 310.667 156.849 309.717 156.145 308.48C155.441 307.243 155.089 305.749 155.089 304C155.089 302.251 155.441 300.757 156.145 299.52C156.849 298.283 157.83 297.333 159.089 296.672C160.369 296.011 161.83 295.68 163.473 295.68C165.158 295.68 166.587 296.011 167.761 296.672C168.955 297.312 169.862 298.208 170.481 299.36C171.099 300.491 171.409 301.792 171.409 303.264C171.409 303.648 171.398 304.032 171.377 304.416C171.355 304.8 171.323 305.12 171.281 305.376H158.609V302.464H168.881L166.289 303.456C166.289 302.176 166.054 301.195 165.585 300.512C165.137 299.829 164.433 299.488 163.473 299.488C162.79 299.488 162.203 299.648 161.713 299.968C161.243 300.288 160.881 300.789 160.625 301.472C160.39 302.155 160.273 303.029 160.273 304.096C160.273 305.141 160.411 305.995 160.689 306.656C160.966 307.296 161.361 307.765 161.873 308.064C162.385 308.341 163.003 308.48 163.729 308.48C164.539 308.48 165.179 308.32 165.649 308C166.139 307.68 166.502 307.232 166.737 306.656L171.089 308.096C170.79 309.013 170.267 309.792 169.521 310.432C168.795 311.051 167.921 311.52 166.897 311.84C165.894 312.16 164.838 312.32 163.729 312.32ZM181.172 312.32C179.572 312.32 178.079 312.064 176.692 311.552C175.327 311.019 174.196 310.261 173.3 309.28L175.86 306.272C176.393 306.955 177.097 307.531 177.972 308C178.868 308.448 179.86 308.672 180.948 308.672C181.609 308.672 182.153 308.576 182.58 308.384C183.007 308.192 183.22 307.893 183.22 307.488C183.22 307.189 183.113 306.955 182.9 306.784C182.687 306.592 182.26 306.432 181.62 306.304L179.38 305.856C177.375 305.451 175.945 304.853 175.092 304.064C174.26 303.253 173.844 302.197 173.844 300.896C173.844 300.021 174.111 299.189 174.644 298.4C175.177 297.589 175.999 296.939 177.108 296.448C178.217 295.936 179.636 295.68 181.364 295.68C182.985 295.68 184.415 295.915 185.652 296.384C186.889 296.853 187.871 297.536 188.596 298.432L186.004 301.376C185.492 300.736 184.831 300.235 184.02 299.872C183.209 299.509 182.399 299.328 181.588 299.328C181.076 299.328 180.639 299.381 180.276 299.488C179.935 299.573 179.679 299.701 179.508 299.872C179.337 300.043 179.252 300.256 179.252 300.512C179.252 300.789 179.38 301.035 179.636 301.248C179.913 301.44 180.415 301.611 181.14 301.76L184.052 302.336C185.695 302.635 186.879 303.179 187.604 303.968C188.329 304.757 188.692 305.707 188.692 306.816C188.692 307.861 188.415 308.8 187.86 309.632C187.305 310.464 186.473 311.125 185.364 311.616C184.255 312.085 182.857 312.32 181.172 312.32ZM198.203 290.912V306.304C198.203 307.072 198.384 307.627 198.747 307.968C199.131 308.288 199.653 308.448 200.315 308.448C200.827 308.448 201.264 308.395 201.627 308.288C202.011 308.16 202.352 307.979 202.651 307.744L203.227 311.104C202.693 311.488 202.021 311.787 201.211 312C200.4 312.213 199.568 312.32 198.715 312.32C197.499 312.32 196.443 312.149 195.547 311.808C194.672 311.467 193.989 310.923 193.499 310.176C193.029 309.429 192.784 308.437 192.763 307.2V292.416L198.203 290.912ZM202.971 296V299.872H190.011V296H202.971ZM214.693 301.856C214.693 301.109 214.479 300.523 214.053 300.096C213.647 299.648 213.093 299.424 212.389 299.424C211.685 299.424 211.077 299.605 210.565 299.968C210.074 300.309 209.733 300.928 209.541 301.824L204.933 300.736C205.231 299.2 206.021 297.973 207.301 297.056C208.581 296.139 210.383 295.68 212.709 295.68C214.266 295.68 215.589 295.915 216.677 296.384C217.786 296.832 218.629 297.515 219.205 298.432C219.802 299.328 220.101 300.437 220.101 301.76V307.616C220.101 308.448 220.474 308.864 221.221 308.864C221.605 308.864 221.914 308.821 222.149 308.736L221.829 311.84C221.189 312.139 220.41 312.288 219.493 312.288C218.661 312.288 217.925 312.16 217.285 311.904C216.645 311.627 216.143 311.221 215.781 310.688C215.418 310.133 215.237 309.44 215.237 308.608V308.416L215.845 308.192C215.845 309.109 215.567 309.877 215.013 310.496C214.479 311.115 213.775 311.573 212.901 311.872C212.047 312.171 211.151 312.32 210.213 312.32C209.125 312.32 208.175 312.149 207.365 311.808C206.554 311.467 205.925 310.976 205.477 310.336C205.05 309.675 204.837 308.864 204.837 307.904C204.837 306.752 205.178 305.803 205.861 305.056C206.565 304.288 207.663 303.755 209.157 303.456L215.205 302.208L215.173 305.088L212.101 305.728C211.461 305.856 210.981 306.048 210.661 306.304C210.362 306.539 210.213 306.901 210.213 307.392C210.213 307.861 210.383 308.213 210.725 308.448C211.066 308.683 211.471 308.8 211.941 308.8C212.303 308.8 212.645 308.747 212.965 308.64C213.306 308.533 213.605 308.373 213.861 308.16C214.117 307.925 214.319 307.637 214.469 307.296C214.618 306.955 214.693 306.549 214.693 306.08V301.856ZM231.755 295.68C233.376 295.68 234.72 295.915 235.787 296.384C236.875 296.832 237.717 297.44 238.315 298.208C238.933 298.955 239.317 299.765 239.467 300.64L234.443 302.304C234.293 301.387 234.016 300.704 233.611 300.256C233.227 299.787 232.661 299.552 231.915 299.552C231.232 299.552 230.656 299.712 230.187 300.032C229.739 300.331 229.397 300.821 229.163 301.504C228.928 302.165 228.811 303.019 228.811 304.064C228.811 305.109 228.939 305.963 229.195 306.624C229.451 307.264 229.813 307.733 230.283 308.032C230.752 308.309 231.307 308.448 231.947 308.448C232.48 308.448 232.917 308.352 233.259 308.16C233.621 307.947 233.92 307.648 234.155 307.264C234.389 306.88 234.539 306.411 234.603 305.856L239.499 307.424C239.349 308.363 238.944 309.205 238.283 309.952C237.643 310.677 236.789 311.253 235.723 311.68C234.656 312.107 233.408 312.32 231.979 312.32C230.229 312.32 228.704 312 227.403 311.36C226.101 310.699 225.099 309.749 224.395 308.512C223.691 307.253 223.339 305.749 223.339 304C223.339 302.251 223.691 300.757 224.395 299.52C225.099 298.261 226.08 297.312 227.339 296.672C228.619 296.011 230.091 295.68 231.755 295.68ZM251.255 301.856C251.255 301.109 251.042 300.523 250.615 300.096C250.21 299.648 249.655 299.424 248.951 299.424C248.247 299.424 247.639 299.605 247.127 299.968C246.636 300.309 246.295 300.928 246.103 301.824L241.495 300.736C241.794 299.2 242.583 297.973 243.863 297.056C245.143 296.139 246.946 295.68 249.271 295.68C250.828 295.68 252.151 295.915 253.239 296.384C254.348 296.832 255.191 297.515 255.767 298.432C256.364 299.328 256.663 300.437 256.663 301.76V307.616C256.663 308.448 257.036 308.864 257.783 308.864C258.167 308.864 258.476 308.821 258.711 308.736L258.391 311.84C257.751 312.139 256.972 312.288 256.055 312.288C255.223 312.288 254.487 312.16 253.847 311.904C253.207 311.627 252.706 311.221 252.343 310.688C251.98 310.133 251.799 309.44 251.799 308.608V308.416L252.407 308.192C252.407 309.109 252.13 309.877 251.575 310.496C251.042 311.115 250.338 311.573 249.463 311.872C248.61 312.171 247.714 312.32 246.775 312.32C245.687 312.32 244.738 312.149 243.927 311.808C243.116 311.467 242.487 310.976 242.039 310.336C241.612 309.675 241.399 308.864 241.399 307.904C241.399 306.752 241.74 305.803 242.423 305.056C243.127 304.288 244.226 303.755 245.719 303.456L251.767 302.208L251.735 305.088L248.663 305.728C248.023 305.856 247.543 306.048 247.223 306.304C246.924 306.539 246.775 306.901 246.775 307.392C246.775 307.861 246.946 308.213 247.287 308.448C247.628 308.683 248.034 308.8 248.503 308.8C248.866 308.8 249.207 308.747 249.527 308.64C249.868 308.533 250.167 308.373 250.423 308.16C250.679 307.925 250.882 307.637 251.031 307.296C251.18 306.955 251.255 306.549 251.255 306.08V301.856ZM260.858 312V296H265.658L265.882 299.456C266.288 298.261 266.885 297.333 267.674 296.672C268.485 296.011 269.509 295.68 270.746 295.68C271.152 295.68 271.493 295.712 271.77 295.776C272.069 295.84 272.304 295.925 272.474 296.032L271.93 300.512C271.717 300.427 271.44 300.363 271.098 300.32C270.778 300.256 270.384 300.224 269.914 300.224C269.274 300.224 268.677 300.363 268.122 300.64C267.568 300.917 267.12 301.333 266.778 301.888C266.458 302.421 266.298 303.104 266.298 303.936V312H260.858ZM289.153 307.744H299.745V312H283.649V290.88H289.153V307.744ZM305.235 294.144C304.125 294.144 303.315 293.941 302.803 293.536C302.312 293.109 302.067 292.448 302.067 291.552C302.067 290.635 302.312 289.973 302.803 289.568C303.315 289.141 304.125 288.928 305.235 288.928C306.323 288.928 307.123 289.141 307.635 289.568C308.147 289.973 308.403 290.635 308.403 291.552C308.403 292.448 308.147 293.109 307.635 293.536C307.123 293.941 306.323 294.144 305.235 294.144ZM307.955 296V312H302.515V296H307.955ZM311.827 312V296H316.691L316.979 301.504L316.371 300.896C316.584 299.744 316.958 298.784 317.491 298.016C318.046 297.248 318.728 296.672 319.539 296.288C320.371 295.883 321.299 295.68 322.323 295.68C323.432 295.68 324.392 295.893 325.203 296.32C326.035 296.747 326.686 297.376 327.155 298.208C327.624 299.04 327.859 300.085 327.859 301.344V312H322.419V302.784C322.419 301.675 322.206 300.907 321.779 300.48C321.352 300.053 320.808 299.84 320.147 299.84C319.635 299.84 319.155 299.968 318.707 300.224C318.259 300.459 317.907 300.843 317.651 301.376C317.395 301.909 317.267 302.624 317.267 303.52V312H311.827ZM349.239 296L341.559 304.192L340.535 304.48L335.959 309.6L335.927 304.032L343.191 296H349.239ZM337.111 289.216V312H331.671V289.216H337.111ZM342.391 300.8L349.591 312H343.575L338.839 304L342.391 300.8ZM358.172 312.32C356.572 312.32 355.079 312.064 353.692 311.552C352.327 311.019 351.196 310.261 350.3 309.28L352.86 306.272C353.393 306.955 354.097 307.531 354.972 308C355.868 308.448 356.86 308.672 357.948 308.672C358.609 308.672 359.153 308.576 359.58 308.384C360.007 308.192 360.22 307.893 360.22 307.488C360.22 307.189 360.113 306.955 359.9 306.784C359.687 306.592 359.26 306.432 358.62 306.304L356.38 305.856C354.375 305.451 352.945 304.853 352.092 304.064C351.26 303.253 350.844 302.197 350.844 300.896C350.844 300.021 351.111 299.189 351.644 298.4C352.177 297.589 352.999 296.939 354.108 296.448C355.217 295.936 356.636 295.68 358.364 295.68C359.985 295.68 361.415 295.915 362.652 296.384C363.889 296.853 364.871 297.536 365.596 298.432L363.004 301.376C362.492 300.736 361.831 300.235 361.02 299.872C360.209 299.509 359.399 299.328 358.588 299.328C358.076 299.328 357.639 299.381 357.276 299.488C356.935 299.573 356.679 299.701 356.508 299.872C356.337 300.043 356.252 300.256 356.252 300.512C356.252 300.789 356.38 301.035 356.636 301.248C356.913 301.44 357.415 301.611 358.14 301.76L361.052 302.336C362.695 302.635 363.879 303.179 364.604 303.968C365.329 304.757 365.692 305.707 365.692 306.816C365.692 307.861 365.415 308.8 364.86 309.632C364.305 310.464 363.473 311.125 362.364 311.616C361.255 312.085 359.857 312.32 358.172 312.32Z" fill="black"/>
</g>
<defs>
<filter id="filter0_d_101_229" x="0.700001" y="0.700001" width="496.6" height="371.298" filterUnits="userSpaceOnUse" color-interpolation-filters="sRGB">
<feFlood flood-opacity="0" result="BackgroundImageFix"/>
<feColorMatrix in="SourceAlpha" type="matrix" values="0 0 0 0 0 0 0 0 0 0 0 0 0 0 0 0 0 0 127 0" result="hardAlpha"/>
<feOffset dy="4"/>
<feGaussianBlur stdDeviation="9.65"/>
<feComposite in2="hardAlpha" operator="out"/>
<feColorMatrix type="matrix" values="0 0 0 0 0 0 0 0 0 0 0 0 0 0 0 0 0 0 0.75 0"/>
<feBlend mode="normal" in2="BackgroundImageFix" result="effect1_dropShadow_101_229"/>
<feBlend mode="normal" in="SourceGraphic" in2="effect1_dropShadow_101_229" result="shape"/>
</filter>
</defs>
</svg>
