<svg width="498" height="372" viewBox="0 0 498 372" fill="none" xmlns="http://www.w3.org/2000/svg">
<g filter="url(#filter0_d_101_230)">
<rect x="22" y="18" width="454" height="328.698" rx="21" stroke="black" stroke-width="4" shape-rendering="crispEdges"/>
<path d="M212.093 197.558L205.482 199.762C205.081 199.896 204.717 200.121 204.418 200.42L195.507 209.33C194.467 210.371 192.788 210.396 191.716 209.387L182.044 200.284C180.925 199.231 180.898 197.462 181.984 196.376L190.747 187.613C191.066 187.295 191.3 186.902 191.43 186.47L193.64 179.105M212.093 197.558L222.856 187.564C223.165 187.277 223.536 187.066 223.94 186.947L236.327 183.304C236.746 183.181 237.13 182.958 237.445 182.656L239.471 180.709M212.093 197.558L193.64 179.105M193.64 179.105L201.951 170.037C202.287 169.671 202.517 169.219 202.614 168.731L205.513 154.239C205.618 153.711 205.877 153.227 206.257 152.847L208.884 150.221M208.884 150.221L239.471 180.709M208.884 150.221L269.86 89.2442M239.471 180.709L301.953 120.702M301.953 120.702L315.946 107.264C317.065 106.189 317.061 104.397 315.936 103.328L287.029 75.8301C285.958 74.812 284.272 74.8331 283.227 75.8776L269.86 89.2442M301.953 120.702L269.86 89.2442M281.895 166.267V189.535M281.895 212.802V189.535M281.895 189.535H311.581M311.581 189.535V166.267M311.581 189.535V212.802" stroke="#2A2A2A" stroke-width="9.62791" stroke-linecap="round"/>
<path d="M93.296 290.88C96.6027 290.88 99.1307 291.797 100.88 293.632C102.651 295.467 103.536 298.069 103.536 301.44C103.536 304.811 102.651 307.413 100.88 309.248C99.1307 311.083 96.6027 312 93.296 312H84.336V290.88H93.296ZM92.752 307.84C94.544 307.84 95.8453 307.307 96.656 306.24C97.488 305.152 97.904 303.552 97.904 301.44C97.904 299.328 97.488 297.739 96.656 296.672C95.8453 295.584 94.544 295.04 92.752 295.04H89.84V307.84H92.752ZM114.729 312.32C112.958 312.32 111.422 311.989 110.121 311.328C108.841 310.667 107.849 309.717 107.145 308.48C106.441 307.243 106.089 305.749 106.089 304C106.089 302.251 106.441 300.757 107.145 299.52C107.849 298.283 108.83 297.333 110.089 296.672C111.369 296.011 112.83 295.68 114.473 295.68C116.158 295.68 117.587 296.011 118.761 296.672C119.955 297.312 120.862 298.208 121.481 299.36C122.099 300.491 122.409 301.792 122.409 303.264C122.409 303.648 122.398 304.032 122.377 304.416C122.355 304.8 122.323 305.12 122.281 305.376H109.609V302.464H119.881L117.289 303.456C117.289 302.176 117.054 301.195 116.585 300.512C116.137 299.829 115.433 299.488 114.473 299.488C113.79 299.488 113.203 299.648 112.713 299.968C112.243 300.288 111.881 300.789 111.625 301.472C111.39 302.155 111.273 303.029 111.273 304.096C111.273 305.141 111.411 305.995 111.689 306.656C111.966 307.296 112.361 307.765 112.873 308.064C113.385 308.341 114.003 308.48 114.729 308.48C115.539 308.48 116.179 308.32 116.649 308C117.139 307.68 117.502 307.232 117.737 306.656L122.089 308.096C121.79 309.013 121.267 309.792 120.521 310.432C119.795 311.051 118.921 311.52 117.897 311.84C116.894 312.16 115.838 312.32 114.729 312.32ZM132.172 312.32C130.572 312.32 129.079 312.064 127.692 311.552C126.327 311.019 125.196 310.261 124.3 309.28L126.86 306.272C127.393 306.955 128.097 307.531 128.972 308C129.868 308.448 130.86 308.672 131.948 308.672C132.609 308.672 133.153 308.576 133.58 308.384C134.007 308.192 134.22 307.893 134.22 307.488C134.22 307.189 134.113 306.955 133.9 306.784C133.687 306.592 133.26 306.432 132.62 306.304L130.38 305.856C128.375 305.451 126.945 304.853 126.092 304.064C125.26 303.253 124.844 302.197 124.844 300.896C124.844 300.021 125.111 299.189 125.644 298.4C126.177 297.589 126.999 296.939 128.108 296.448C129.217 295.936 130.636 295.68 132.364 295.68C133.985 295.68 135.415 295.915 136.652 296.384C137.889 296.853 138.871 297.536 139.596 298.432L137.004 301.376C136.492 300.736 135.831 300.235 135.02 299.872C134.209 299.509 133.399 299.328 132.588 299.328C132.076 299.328 131.639 299.381 131.276 299.488C130.935 299.573 130.679 299.701 130.508 299.872C130.337 300.043 130.252 300.256 130.252 300.512C130.252 300.789 130.38 301.035 130.636 301.248C130.913 301.44 131.415 301.611 132.14 301.76L135.052 302.336C136.695 302.635 137.879 303.179 138.604 303.968C139.329 304.757 139.692 305.707 139.692 306.816C139.692 307.861 139.415 308.8 138.86 309.632C138.305 310.464 137.473 311.125 136.364 311.616C135.255 312.085 133.857 312.32 132.172 312.32ZM149.203 290.912V306.304C149.203 307.072 149.384 307.627 149.747 307.968C150.131 308.288 150.653 308.448 151.315 308.448C151.827 308.448 152.264 308.395 152.627 308.288C153.011 308.16 153.352 307.979 153.651 307.744L154.227 311.104C153.693 311.488 153.021 311.787 152.211 312C151.4 312.213 150.568 312.32 149.715 312.32C148.499 312.32 147.443 312.149 146.547 311.808C145.672 311.467 144.989 310.923 144.499 310.176C144.029 309.429 143.784 308.437 143.763 307.2V292.416L149.203 290.912ZM153.971 296V299.872H141.011V296H153.971ZM165.693 301.856C165.693 301.109 165.479 300.523 165.053 300.096C164.647 299.648 164.093 299.424 163.389 299.424C162.685 299.424 162.077 299.605 161.565 299.968C161.074 300.309 160.733 300.928 160.541 301.824L155.933 300.736C156.231 299.2 157.021 297.973 158.301 297.056C159.581 296.139 161.383 295.68 163.709 295.68C165.266 295.68 166.589 295.915 167.677 296.384C168.786 296.832 169.629 297.515 170.205 298.432C170.802 299.328 171.101 300.437 171.101 301.76V307.616C171.101 308.448 171.474 308.864 172.221 308.864C172.605 308.864 172.914 308.821 173.149 308.736L172.829 311.84C172.189 312.139 171.41 312.288 170.493 312.288C169.661 312.288 168.925 312.16 168.285 311.904C167.645 311.627 167.143 311.221 166.781 310.688C166.418 310.133 166.237 309.44 166.237 308.608V308.416L166.845 308.192C166.845 309.109 166.567 309.877 166.013 310.496C165.479 311.115 164.775 311.573 163.901 311.872C163.047 312.171 162.151 312.32 161.213 312.32C160.125 312.32 159.175 312.149 158.365 311.808C157.554 311.467 156.925 310.976 156.477 310.336C156.05 309.675 155.837 308.864 155.837 307.904C155.837 306.752 156.178 305.803 156.861 305.056C157.565 304.288 158.663 303.755 160.157 303.456L166.205 302.208L166.173 305.088L163.101 305.728C162.461 305.856 161.981 306.048 161.661 306.304C161.362 306.539 161.213 306.901 161.213 307.392C161.213 307.861 161.383 308.213 161.725 308.448C162.066 308.683 162.471 308.8 162.941 308.8C163.303 308.8 163.645 308.747 163.965 308.64C164.306 308.533 164.605 308.373 164.861 308.16C165.117 307.925 165.319 307.637 165.469 307.296C165.618 306.955 165.693 306.549 165.693 306.08V301.856ZM182.755 295.68C184.376 295.68 185.72 295.915 186.787 296.384C187.875 296.832 188.717 297.44 189.315 298.208C189.933 298.955 190.317 299.765 190.467 300.64L185.443 302.304C185.293 301.387 185.016 300.704 184.611 300.256C184.227 299.787 183.661 299.552 182.915 299.552C182.232 299.552 181.656 299.712 181.187 300.032C180.739 300.331 180.397 300.821 180.163 301.504C179.928 302.165 179.811 303.019 179.811 304.064C179.811 305.109 179.939 305.963 180.195 306.624C180.451 307.264 180.813 307.733 181.283 308.032C181.752 308.309 182.307 308.448 182.947 308.448C183.48 308.448 183.917 308.352 184.259 308.16C184.621 307.947 184.92 307.648 185.155 307.264C185.389 306.88 185.539 306.411 185.603 305.856L190.499 307.424C190.349 308.363 189.944 309.205 189.283 309.952C188.643 310.677 187.789 311.253 186.723 311.68C185.656 312.107 184.408 312.32 182.979 312.32C181.229 312.32 179.704 312 178.403 311.36C177.101 310.699 176.099 309.749 175.395 308.512C174.691 307.253 174.339 305.749 174.339 304C174.339 302.251 174.691 300.757 175.395 299.52C176.099 298.261 177.08 297.312 178.339 296.672C179.619 296.011 181.091 295.68 182.755 295.68ZM202.255 301.856C202.255 301.109 202.042 300.523 201.615 300.096C201.21 299.648 200.655 299.424 199.951 299.424C199.247 299.424 198.639 299.605 198.127 299.968C197.636 300.309 197.295 300.928 197.103 301.824L192.495 300.736C192.794 299.2 193.583 297.973 194.863 297.056C196.143 296.139 197.946 295.68 200.271 295.68C201.828 295.68 203.151 295.915 204.239 296.384C205.348 296.832 206.191 297.515 206.767 298.432C207.364 299.328 207.663 300.437 207.663 301.76V307.616C207.663 308.448 208.036 308.864 208.783 308.864C209.167 308.864 209.476 308.821 209.711 308.736L209.391 311.84C208.751 312.139 207.972 312.288 207.055 312.288C206.223 312.288 205.487 312.16 204.847 311.904C204.207 311.627 203.706 311.221 203.343 310.688C202.98 310.133 202.799 309.44 202.799 308.608V308.416L203.407 308.192C203.407 309.109 203.13 309.877 202.575 310.496C202.042 311.115 201.338 311.573 200.463 311.872C199.61 312.171 198.714 312.32 197.775 312.32C196.687 312.32 195.738 312.149 194.927 311.808C194.116 311.467 193.487 310.976 193.039 310.336C192.612 309.675 192.399 308.864 192.399 307.904C192.399 306.752 192.74 305.803 193.423 305.056C194.127 304.288 195.226 303.755 196.719 303.456L202.767 302.208L202.735 305.088L199.663 305.728C199.023 305.856 198.543 306.048 198.223 306.304C197.924 306.539 197.775 306.901 197.775 307.392C197.775 307.861 197.946 308.213 198.287 308.448C198.628 308.683 199.034 308.8 199.503 308.8C199.866 308.8 200.207 308.747 200.527 308.64C200.868 308.533 201.167 308.373 201.423 308.16C201.679 307.925 201.882 307.637 202.031 307.296C202.18 306.955 202.255 306.549 202.255 306.08V301.856ZM211.858 312V296H216.658L216.882 299.456C217.288 298.261 217.885 297.333 218.674 296.672C219.485 296.011 220.509 295.68 221.746 295.68C222.152 295.68 222.493 295.712 222.77 295.776C223.069 295.84 223.304 295.925 223.474 296.032L222.93 300.512C222.717 300.427 222.44 300.363 222.098 300.32C221.778 300.256 221.384 300.224 220.914 300.224C220.274 300.224 219.677 300.363 219.122 300.64C218.568 300.917 218.12 301.333 217.778 301.888C217.458 302.421 217.298 303.104 217.298 303.936V312H211.858ZM253.369 305.952C252.963 307.424 252.313 308.64 251.417 309.6C250.521 310.539 249.454 311.232 248.217 311.68C246.979 312.107 245.614 312.32 244.121 312.32C241.987 312.32 240.142 311.893 238.585 311.04C237.027 310.165 235.833 308.917 235.001 307.296C234.169 305.675 233.753 303.723 233.753 301.44C233.753 299.157 234.169 297.205 235.001 295.584C235.833 293.963 237.027 292.725 238.585 291.872C240.142 290.997 241.977 290.56 244.089 290.56C245.561 290.56 246.915 290.773 248.153 291.2C249.39 291.605 250.435 292.235 251.289 293.088C252.142 293.941 252.75 295.04 253.113 296.384L248.281 298.336C247.982 297.013 247.491 296.107 246.809 295.616C246.147 295.125 245.305 294.88 244.281 294.88C243.278 294.88 242.403 295.125 241.657 295.616C240.931 296.107 240.366 296.843 239.961 297.824C239.577 298.784 239.385 299.989 239.385 301.44C239.385 302.869 239.566 304.075 239.929 305.056C240.291 306.037 240.835 306.773 241.561 307.264C242.307 307.755 243.225 308 244.313 308C245.337 308 246.201 307.723 246.905 307.168C247.63 306.592 248.121 305.717 248.377 304.544L253.369 305.952ZM264.974 301.856C264.974 301.109 264.76 300.523 264.334 300.096C263.928 299.648 263.374 299.424 262.67 299.424C261.966 299.424 261.358 299.605 260.846 299.968C260.355 300.309 260.014 300.928 259.822 301.824L255.214 300.736C255.512 299.2 256.302 297.973 257.582 297.056C258.862 296.139 260.664 295.68 262.99 295.68C264.547 295.68 265.87 295.915 266.958 296.384C268.067 296.832 268.91 297.515 269.486 298.432C270.083 299.328 270.382 300.437 270.382 301.76V307.616C270.382 308.448 270.755 308.864 271.502 308.864C271.886 308.864 272.195 308.821 272.43 308.736L272.11 311.84C271.47 312.139 270.691 312.288 269.774 312.288C268.942 312.288 268.206 312.16 267.566 311.904C266.926 311.627 266.424 311.221 266.062 310.688C265.699 310.133 265.518 309.44 265.518 308.608V308.416L266.126 308.192C266.126 309.109 265.848 309.877 265.294 310.496C264.76 311.115 264.056 311.573 263.182 311.872C262.328 312.171 261.432 312.32 260.494 312.32C259.406 312.32 258.456 312.149 257.646 311.808C256.835 311.467 256.206 310.976 255.758 310.336C255.331 309.675 255.118 308.864 255.118 307.904C255.118 306.752 255.459 305.803 256.142 305.056C256.846 304.288 257.944 303.755 259.438 303.456L265.486 302.208L265.454 305.088L262.382 305.728C261.742 305.856 261.262 306.048 260.942 306.304C260.643 306.539 260.494 306.901 260.494 307.392C260.494 307.861 260.664 308.213 261.006 308.448C261.347 308.683 261.752 308.8 262.222 308.8C262.584 308.8 262.926 308.747 263.246 308.64C263.587 308.533 263.886 308.373 264.142 308.16C264.398 307.925 264.6 307.637 264.75 307.296C264.899 306.955 264.974 306.549 264.974 306.08V301.856ZM284.849 312.32C283.804 312.32 282.876 312.085 282.065 311.616C281.276 311.147 280.625 310.507 280.113 309.696C279.601 308.864 279.27 307.925 279.121 306.88L279.633 306.208L279.345 312H274.577V289.216H280.017V301.024L279.505 300.256C279.804 298.933 280.412 297.845 281.329 296.992C282.246 296.117 283.484 295.68 285.041 295.68C286.278 295.68 287.377 296.011 288.337 296.672C289.318 297.333 290.076 298.293 290.609 299.552C291.164 300.789 291.441 302.293 291.441 304.064C291.441 305.792 291.164 307.275 290.609 308.512C290.054 309.749 289.286 310.699 288.305 311.36C287.324 312 286.172 312.32 284.849 312.32ZM282.961 308.32C283.9 308.32 284.636 307.979 285.169 307.296C285.702 306.592 285.969 305.493 285.969 304C285.969 302.507 285.702 301.419 285.169 300.736C284.636 300.032 283.9 299.68 282.961 299.68C282.342 299.68 281.809 299.861 281.361 300.224C280.934 300.565 280.604 301.056 280.369 301.696C280.134 302.336 280.017 303.115 280.017 304.032C280.017 304.949 280.134 305.728 280.369 306.368C280.604 307.008 280.945 307.499 281.393 307.84C281.841 308.16 282.364 308.32 282.961 308.32ZM302.448 312.32C300.677 312.32 299.141 311.989 297.84 311.328C296.56 310.667 295.568 309.717 294.864 308.48C294.16 307.243 293.808 305.749 293.808 304C293.808 302.251 294.16 300.757 294.864 299.52C295.568 298.283 296.549 297.333 297.808 296.672C299.088 296.011 300.549 295.68 302.192 295.68C303.877 295.68 305.306 296.011 306.48 296.672C307.674 297.312 308.581 298.208 309.2 299.36C309.818 300.491 310.128 301.792 310.128 303.264C310.128 303.648 310.117 304.032 310.096 304.416C310.074 304.8 310.042 305.12 310 305.376H297.328V302.464H307.6L305.008 303.456C305.008 302.176 304.773 301.195 304.304 300.512C303.856 299.829 303.152 299.488 302.192 299.488C301.509 299.488 300.922 299.648 300.432 299.968C299.962 300.288 299.6 300.789 299.344 301.472C299.109 302.155 298.992 303.029 298.992 304.096C298.992 305.141 299.13 305.995 299.408 306.656C299.685 307.296 300.08 307.765 300.592 308.064C301.104 308.341 301.722 308.48 302.448 308.48C303.258 308.48 303.898 308.32 304.368 308C304.858 307.68 305.221 307.232 305.456 306.656L309.808 308.096C309.509 309.013 308.986 309.792 308.24 310.432C307.514 311.051 306.64 311.52 305.616 311.84C304.613 312.16 303.557 312.32 302.448 312.32ZM320.755 295.68C322.376 295.68 323.72 295.915 324.787 296.384C325.875 296.832 326.717 297.44 327.315 298.208C327.933 298.955 328.317 299.765 328.467 300.64L323.443 302.304C323.293 301.387 323.016 300.704 322.611 300.256C322.227 299.787 321.661 299.552 320.915 299.552C320.232 299.552 319.656 299.712 319.187 300.032C318.739 300.331 318.397 300.821 318.163 301.504C317.928 302.165 317.811 303.019 317.811 304.064C317.811 305.109 317.939 305.963 318.195 306.624C318.451 307.264 318.813 307.733 319.283 308.032C319.752 308.309 320.307 308.448 320.947 308.448C321.48 308.448 321.917 308.352 322.259 308.16C322.621 307.947 322.92 307.648 323.155 307.264C323.389 306.88 323.539 306.411 323.603 305.856L328.499 307.424C328.349 308.363 327.944 309.205 327.283 309.952C326.643 310.677 325.789 311.253 324.723 311.68C323.656 312.107 322.408 312.32 320.979 312.32C319.229 312.32 317.704 312 316.403 311.36C315.101 310.699 314.099 309.749 313.395 308.512C312.691 307.253 312.339 305.749 312.339 304C312.339 302.251 312.691 300.757 313.395 299.52C314.099 298.261 315.08 297.312 316.339 296.672C317.619 296.011 319.091 295.68 320.755 295.68ZM318.323 311.68L319.635 310.816C321.299 311.051 322.525 311.499 323.315 312.16C324.104 312.843 324.499 313.749 324.499 314.88C324.499 316.075 324.093 317.035 323.283 317.76C322.493 318.507 321.405 318.88 320.019 318.88C319.187 318.88 318.525 318.784 318.035 318.592C317.544 318.421 317.107 318.208 316.723 317.952L317.619 315.36C317.875 315.509 318.152 315.637 318.451 315.744C318.749 315.872 319.112 315.936 319.539 315.936C320.093 315.936 320.541 315.776 320.883 315.456C321.224 315.136 321.395 314.688 321.395 314.112C321.395 313.621 321.171 313.184 320.723 312.8C320.275 312.416 319.475 312.043 318.323 311.68ZM340.255 301.856C340.255 301.109 340.042 300.523 339.615 300.096C339.21 299.648 338.655 299.424 337.951 299.424C337.247 299.424 336.639 299.605 336.127 299.968C335.636 300.309 335.295 300.928 335.103 301.824L330.495 300.736C330.794 299.2 331.583 297.973 332.863 297.056C334.143 296.139 335.946 295.68 338.271 295.68C339.828 295.68 341.151 295.915 342.239 296.384C343.348 296.832 344.191 297.515 344.767 298.432C345.364 299.328 345.663 300.437 345.663 301.76V307.616C345.663 308.448 346.036 308.864 346.783 308.864C347.167 308.864 347.476 308.821 347.711 308.736L347.391 311.84C346.751 312.139 345.972 312.288 345.055 312.288C344.223 312.288 343.487 312.16 342.847 311.904C342.207 311.627 341.706 311.221 341.343 310.688C340.98 310.133 340.799 309.44 340.799 308.608V308.416L341.407 308.192C341.407 309.109 341.13 309.877 340.575 310.496C340.042 311.115 339.338 311.573 338.463 311.872C337.61 312.171 336.714 312.32 335.775 312.32C334.687 312.32 333.738 312.149 332.927 311.808C332.116 311.467 331.487 310.976 331.039 310.336C330.612 309.675 330.399 308.864 330.399 307.904C330.399 306.752 330.74 305.803 331.423 305.056C332.127 304.288 333.226 303.755 334.719 303.456L340.767 302.208L340.735 305.088L337.663 305.728C337.023 305.856 336.543 306.048 336.223 306.304C335.924 306.539 335.775 306.901 335.775 307.392C335.775 307.861 335.946 308.213 336.287 308.448C336.628 308.683 337.034 308.8 337.503 308.8C337.866 308.8 338.207 308.747 338.527 308.64C338.868 308.533 339.167 308.373 339.423 308.16C339.679 307.925 339.882 307.637 340.031 307.296C340.18 306.955 340.255 306.549 340.255 306.08V301.856ZM355.234 289.216V306.56C355.234 307.264 355.352 307.765 355.586 308.064C355.821 308.363 356.216 308.512 356.77 308.512C357.09 308.512 357.357 308.491 357.57 308.448C357.784 308.405 358.04 308.341 358.338 308.256L357.986 311.52C357.602 311.755 357.101 311.947 356.482 312.096C355.864 312.245 355.256 312.32 354.658 312.32C352.952 312.32 351.714 311.925 350.946 311.136C350.178 310.347 349.794 309.056 349.794 307.264V289.216H355.234ZM360.327 312V289.216H365.767V298.912C366.236 297.845 366.908 297.045 367.783 296.512C368.658 295.957 369.671 295.68 370.823 295.68C371.932 295.68 372.892 295.893 373.703 296.32C374.535 296.747 375.186 297.376 375.655 298.208C376.124 299.04 376.359 300.085 376.359 301.344V312H370.919V302.848C370.919 301.696 370.706 300.907 370.279 300.48C369.874 300.032 369.33 299.808 368.647 299.808C368.135 299.808 367.655 299.936 367.207 300.192C366.759 300.448 366.407 300.853 366.151 301.408C365.895 301.963 365.767 302.688 365.767 303.584V312H360.327ZM387.787 295.68C389.472 295.68 390.944 296.011 392.203 296.672C393.483 297.312 394.475 298.261 395.179 299.52C395.904 300.757 396.267 302.251 396.267 304C396.267 305.749 395.904 307.253 395.179 308.512C394.475 309.749 393.483 310.699 392.203 311.36C390.944 312 389.472 312.32 387.787 312.32C386.144 312.32 384.683 312 383.403 311.36C382.123 310.699 381.12 309.749 380.395 308.512C379.691 307.253 379.339 305.749 379.339 304C379.339 302.251 379.691 300.757 380.395 299.52C381.12 298.261 382.123 297.312 383.403 296.672C384.683 296.011 386.144 295.68 387.787 295.68ZM387.787 299.552C387.168 299.552 386.635 299.701 386.187 300C385.739 300.299 385.397 300.779 385.163 301.44C384.928 302.101 384.811 302.955 384.811 304C384.811 305.045 384.928 305.899 385.163 306.56C385.397 307.2 385.739 307.68 386.187 308C386.635 308.299 387.168 308.448 387.787 308.448C388.427 308.448 388.971 308.299 389.419 308C389.867 307.68 390.208 307.2 390.443 306.56C390.677 305.899 390.795 305.045 390.795 304C390.795 302.955 390.677 302.101 390.443 301.44C390.208 300.779 389.867 300.299 389.419 300C388.971 299.701 388.427 299.552 387.787 299.552ZM406.047 312.32C404.447 312.32 402.954 312.064 401.567 311.552C400.202 311.019 399.071 310.261 398.175 309.28L400.735 306.272C401.268 306.955 401.972 307.531 402.847 308C403.743 308.448 404.735 308.672 405.823 308.672C406.484 308.672 407.028 308.576 407.455 308.384C407.882 308.192 408.095 307.893 408.095 307.488C408.095 307.189 407.988 306.955 407.775 306.784C407.562 306.592 407.135 306.432 406.495 306.304L404.255 305.856C402.25 305.451 400.82 304.853 399.967 304.064C399.135 303.253 398.719 302.197 398.719 300.896C398.719 300.021 398.986 299.189 399.519 298.4C400.052 297.589 400.874 296.939 401.983 296.448C403.092 295.936 404.511 295.68 406.239 295.68C407.86 295.68 409.29 295.915 410.527 296.384C411.764 296.853 412.746 297.536 413.471 298.432L410.879 301.376C410.367 300.736 409.706 300.235 408.895 299.872C408.084 299.509 407.274 299.328 406.463 299.328C405.951 299.328 405.514 299.381 405.151 299.488C404.81 299.573 404.554 299.701 404.383 299.872C404.212 300.043 404.127 300.256 404.127 300.512C404.127 300.789 404.255 301.035 404.511 301.248C404.788 301.44 405.29 301.611 406.015 301.76L408.927 302.336C410.57 302.635 411.754 303.179 412.479 303.968C413.204 304.757 413.567 305.707 413.567 306.816C413.567 307.861 413.29 308.8 412.735 309.632C412.18 310.464 411.348 311.125 410.239 311.616C409.13 312.085 407.732 312.32 406.047 312.32Z" fill="black"/>
</g>
<defs>
<filter id="filter0_d_101_230" x="0.700001" y="0.700001" width="496.6" height="371.298" filterUnits="userSpaceOnUse" color-interpolation-filters="sRGB">
<feFlood flood-opacity="0" result="BackgroundImageFix"/>
<feColorMatrix in="SourceAlpha" type="matrix" values="0 0 0 0 0 0 0 0 0 0 0 0 0 0 0 0 0 0 127 0" result="hardAlpha"/>
<feOffset dy="4"/>
<feGaussianBlur stdDeviation="9.65"/>
<feComposite in2="hardAlpha" operator="out"/>
<feColorMatrix type="matrix" values="0 0 0 0 0 0 0 0 0 0 0 0 0 0 0 0 0 0 0.75 0"/>
<feBlend mode="normal" in2="BackgroundImageFix" result="effect1_dropShadow_101_230"/>
<feBlend mode="normal" in="SourceGraphic" in2="effect1_dropShadow_101_230" result="shape"/>
</filter>
</defs>
</svg>
