<svg width="498" height="398" viewBox="0 0 498 398" fill="none" xmlns="http://www.w3.org/2000/svg">
<g filter="url(#filter0_d_101_227)">
<rect x="22" y="18" width="454" height="354" rx="21" stroke="black" stroke-width="4" shape-rendering="crispEdges"/>
<path d="M196.413 199.353L209.634 170.952M302.278 194.772L291.259 170.952M291.259 170.952L252.234 86.5839C251.579 85.1683 249.568 85.1659 248.91 86.5799L209.634 170.952M291.259 170.952H209.634M180 236H318.691" stroke="#2A2A2A" stroke-width="20.1557" stroke-linecap="round"/>
<path d="M161.752 305.136H150.84V309.616H159.544V313.872H150.84V322H145.336V300.88H161.752V305.136ZM170.599 305.68C172.285 305.68 173.757 306.011 175.015 306.672C176.295 307.312 177.287 308.261 177.991 309.52C178.717 310.757 179.079 312.251 179.079 314C179.079 315.749 178.717 317.253 177.991 318.512C177.287 319.749 176.295 320.699 175.015 321.36C173.757 322 172.285 322.32 170.599 322.32C168.957 322.32 167.495 322 166.215 321.36C164.935 320.699 163.933 319.749 163.207 318.512C162.503 317.253 162.151 315.749 162.151 314C162.151 312.251 162.503 310.757 163.207 309.52C163.933 308.261 164.935 307.312 166.215 306.672C167.495 306.011 168.957 305.68 170.599 305.68ZM170.599 309.552C169.981 309.552 169.447 309.701 168.999 310C168.551 310.299 168.21 310.779 167.975 311.44C167.741 312.101 167.623 312.955 167.623 314C167.623 315.045 167.741 315.899 167.975 316.56C168.21 317.2 168.551 317.68 168.999 318C169.447 318.299 169.981 318.448 170.599 318.448C171.239 318.448 171.783 318.299 172.231 318C172.679 317.68 173.021 317.2 173.255 316.56C173.49 315.899 173.607 315.045 173.607 314C173.607 312.955 173.49 312.101 173.255 311.44C173.021 310.779 172.679 310.299 172.231 310C171.783 309.701 171.239 309.552 170.599 309.552ZM182.14 322V306H187.004L187.292 311.504L186.684 310.896C186.897 309.744 187.27 308.784 187.804 308.016C188.358 307.248 189.041 306.672 189.852 306.288C190.684 305.883 191.612 305.68 192.636 305.68C193.745 305.68 194.705 305.893 195.516 306.32C196.348 306.747 196.998 307.376 197.468 308.208C197.937 309.04 198.172 310.085 198.172 311.344V322H192.732V312.784C192.732 311.675 192.518 310.907 192.092 310.48C191.665 310.053 191.121 309.84 190.46 309.84C189.948 309.84 189.468 309.968 189.02 310.224C188.572 310.459 188.22 310.843 187.964 311.376C187.708 311.909 187.58 312.624 187.58 313.52V322H182.14ZM208.578 300.912V316.304C208.578 317.072 208.759 317.627 209.122 317.968C209.506 318.288 210.028 318.448 210.69 318.448C211.202 318.448 211.639 318.395 212.002 318.288C212.386 318.16 212.727 317.979 213.026 317.744L213.602 321.104C213.068 321.488 212.396 321.787 211.586 322C210.775 322.213 209.943 322.32 209.09 322.32C207.874 322.32 206.818 322.149 205.922 321.808C205.047 321.467 204.364 320.923 203.874 320.176C203.404 319.429 203.159 318.437 203.138 317.2V302.416L208.578 300.912ZM213.346 306V309.872H200.386V306H213.346ZM223.666 322.32C221.896 322.32 220.36 321.989 219.058 321.328C217.778 320.667 216.786 319.717 216.082 318.48C215.378 317.243 215.026 315.749 215.026 314C215.026 312.251 215.378 310.757 216.082 309.52C216.786 308.283 217.768 307.333 219.026 306.672C220.306 306.011 221.768 305.68 223.41 305.68C225.096 305.68 226.525 306.011 227.698 306.672C228.893 307.312 229.8 308.208 230.418 309.36C231.037 310.491 231.346 311.792 231.346 313.264C231.346 313.648 231.336 314.032 231.314 314.416C231.293 314.8 231.261 315.12 231.218 315.376H218.546V312.464H228.818L226.226 313.456C226.226 312.176 225.992 311.195 225.522 310.512C225.074 309.829 224.37 309.488 223.41 309.488C222.728 309.488 222.141 309.648 221.65 309.968C221.181 310.288 220.818 310.789 220.562 311.472C220.328 312.155 220.21 313.029 220.21 314.096C220.21 315.141 220.349 315.995 220.626 316.656C220.904 317.296 221.298 317.765 221.81 318.064C222.322 318.341 222.941 318.48 223.666 318.48C224.477 318.48 225.117 318.32 225.586 318C226.077 317.68 226.44 317.232 226.674 316.656L231.026 318.096C230.728 319.013 230.205 319.792 229.458 320.432C228.733 321.051 227.858 321.52 226.834 321.84C225.832 322.16 224.776 322.32 223.666 322.32ZM249.434 317.744H260.026V322H243.93V300.88H249.434V317.744ZM270.416 322.32C268.646 322.32 267.11 321.989 265.808 321.328C264.528 320.667 263.536 319.717 262.832 318.48C262.128 317.243 261.776 315.749 261.776 314C261.776 312.251 262.128 310.757 262.832 309.52C263.536 308.283 264.518 307.333 265.776 306.672C267.056 306.011 268.518 305.68 270.16 305.68C271.846 305.68 273.275 306.011 274.448 306.672C275.643 307.312 276.55 308.208 277.168 309.36C277.787 310.491 278.096 311.792 278.096 313.264C278.096 313.648 278.086 314.032 278.064 314.416C278.043 314.8 278.011 315.12 277.968 315.376H265.296V312.464H275.568L272.976 313.456C272.976 312.176 272.742 311.195 272.272 310.512C271.824 309.829 271.12 309.488 270.16 309.488C269.478 309.488 268.891 309.648 268.4 309.968C267.931 310.288 267.568 310.789 267.312 311.472C267.078 312.155 266.96 313.029 266.96 314.096C266.96 315.141 267.099 315.995 267.376 316.656C267.654 317.296 268.048 317.765 268.56 318.064C269.072 318.341 269.691 318.48 270.416 318.48C271.227 318.48 271.867 318.32 272.336 318C272.827 317.68 273.19 317.232 273.424 316.656L277.776 318.096C277.478 319.013 276.955 319.792 276.208 320.432C275.483 321.051 274.608 321.52 273.584 321.84C272.582 322.16 271.526 322.32 270.416 322.32ZM296.628 301.712L297.076 305.36C296.948 305.317 296.82 305.296 296.692 305.296C296.564 305.275 296.436 305.264 296.308 305.264C295.369 305.264 294.665 305.499 294.196 305.968C293.748 306.416 293.524 306.981 293.524 307.664L291.604 306.96C291.604 306.085 291.764 305.243 292.084 304.432C292.404 303.621 292.894 302.96 293.556 302.448C294.238 301.936 295.092 301.68 296.116 301.68C296.18 301.68 296.254 301.68 296.34 301.68C296.446 301.68 296.542 301.691 296.628 301.712ZM291.124 318.448C292.98 318.448 294.398 318.843 295.38 319.632C296.382 320.4 296.884 321.509 296.884 322.96C296.884 324.283 296.521 325.381 295.796 326.256C295.07 327.131 294.046 327.781 292.724 328.208C291.422 328.656 289.876 328.88 288.084 328.88C285.182 328.88 283.092 328.517 281.812 327.792C280.532 327.067 279.892 326.085 279.892 324.848C279.892 323.952 280.254 323.227 280.98 322.672C281.705 322.117 282.91 321.819 284.596 321.776L284.468 322.288C283.166 322.117 282.196 321.733 281.556 321.136C280.916 320.539 280.596 319.728 280.596 318.704C280.596 317.68 281.001 316.848 281.812 316.208C282.622 315.568 283.7 315.216 285.044 315.152L287.028 316.08H286.516C285.684 316.123 285.097 316.261 284.756 316.496C284.414 316.731 284.244 317.019 284.244 317.36C284.244 317.723 284.393 318 284.692 318.192C284.99 318.363 285.438 318.448 286.036 318.448H291.124ZM288.116 325.36C289.14 325.36 289.982 325.285 290.644 325.136C291.326 325.008 291.838 324.816 292.18 324.56C292.521 324.325 292.692 324.048 292.692 323.728C292.692 323.408 292.574 323.152 292.34 322.96C292.105 322.789 291.678 322.704 291.06 322.704H285.332C284.926 322.704 284.596 322.811 284.34 323.024C284.105 323.237 283.988 323.504 283.988 323.824C283.988 324.315 284.35 324.688 285.076 324.944C285.801 325.221 286.814 325.36 288.116 325.36ZM288.308 305.68C289.929 305.68 291.316 305.893 292.468 306.32C293.62 306.747 294.494 307.365 295.092 308.176C295.71 308.965 296.02 309.947 296.02 311.12C296.02 312.272 295.71 313.253 295.092 314.064C294.494 314.875 293.62 315.493 292.468 315.92C291.316 316.325 289.929 316.528 288.308 316.528C285.769 316.528 283.838 316.059 282.516 315.12C281.214 314.181 280.564 312.848 280.564 311.12C280.564 309.947 280.862 308.965 281.46 308.176C282.078 307.365 282.964 306.747 284.116 306.32C285.268 305.893 286.665 305.68 288.308 305.68ZM288.308 308.784C287.604 308.784 287.028 308.987 286.58 309.392C286.153 309.797 285.94 310.373 285.94 311.12C285.94 311.845 286.153 312.411 286.58 312.816C287.028 313.221 287.604 313.424 288.308 313.424C288.99 313.424 289.556 313.221 290.004 312.816C290.452 312.411 290.676 311.845 290.676 311.12C290.676 310.373 290.452 309.797 290.004 309.392C289.556 308.987 288.99 308.784 288.308 308.784ZM304.486 306V322H299.046V306H304.486ZM301.446 298.384H306.502L303.27 303.92H299.302L301.446 298.384ZM318.758 306H324.39L318.63 322H312.134L306.374 306H312.102L315.398 318.192L318.758 306ZM333.823 322.32C332.052 322.32 330.516 321.989 329.215 321.328C327.935 320.667 326.943 319.717 326.239 318.48C325.535 317.243 325.183 315.749 325.183 314C325.183 312.251 325.535 310.757 326.239 309.52C326.943 308.283 327.924 307.333 329.183 306.672C330.463 306.011 331.924 305.68 333.567 305.68C335.252 305.68 336.681 306.011 337.855 306.672C339.049 307.312 339.956 308.208 340.575 309.36C341.193 310.491 341.503 311.792 341.503 313.264C341.503 313.648 341.492 314.032 341.471 314.416C341.449 314.8 341.417 315.12 341.375 315.376H328.703V312.464H338.975L336.383 313.456C336.383 312.176 336.148 311.195 335.679 310.512C335.231 309.829 334.527 309.488 333.567 309.488C332.884 309.488 332.297 309.648 331.807 309.968C331.337 310.288 330.975 310.789 330.719 311.472C330.484 312.155 330.367 313.029 330.367 314.096C330.367 315.141 330.505 315.995 330.783 316.656C331.06 317.296 331.455 317.765 331.967 318.064C332.479 318.341 333.097 318.48 333.823 318.48C334.633 318.48 335.273 318.32 335.743 318C336.233 317.68 336.596 317.232 336.831 316.656L341.183 318.096C340.884 319.013 340.361 319.792 339.615 320.432C338.889 321.051 338.015 321.52 336.991 321.84C335.988 322.16 334.932 322.32 333.823 322.32ZM349.922 299.216V316.56C349.922 317.264 350.039 317.765 350.274 318.064C350.508 318.363 350.903 318.512 351.458 318.512C351.778 318.512 352.044 318.491 352.258 318.448C352.471 318.405 352.727 318.341 353.026 318.256L352.674 321.52C352.29 321.755 351.788 321.947 351.17 322.096C350.551 322.245 349.943 322.32 349.346 322.32C347.639 322.32 346.402 321.925 345.634 321.136C344.866 320.347 344.482 319.056 344.482 317.264V299.216H349.922Z" fill="black"/>
</g>
<defs>
<filter id="filter0_d_101_227" x="0.700001" y="0.700001" width="496.6" height="396.6" filterUnits="userSpaceOnUse" color-interpolation-filters="sRGB">
<feFlood flood-opacity="0" result="BackgroundImageFix"/>
<feColorMatrix in="SourceAlpha" type="matrix" values="0 0 0 0 0 0 0 0 0 0 0 0 0 0 0 0 0 0 127 0" result="hardAlpha"/>
<feOffset dy="4"/>
<feGaussianBlur stdDeviation="9.65"/>
<feComposite in2="hardAlpha" operator="out"/>
<feColorMatrix type="matrix" values="0 0 0 0 0 0 0 0 0 0 0 0 0 0 0 0 0 0 0.75 0"/>
<feBlend mode="normal" in2="BackgroundImageFix" result="effect1_dropShadow_101_227"/>
<feBlend mode="normal" in="SourceGraphic" in2="effect1_dropShadow_101_227" result="shape"/>
</filter>
</defs>
</svg>
