<svg width="498" height="398" viewBox="0 0 498 398" fill="none" xmlns="http://www.w3.org/2000/svg">
<g filter="url(#filter0_d_101_225)">
<rect x="22" y="18" width="454" height="354" rx="21" stroke="black" stroke-width="4" shape-rendering="crispEdges"/>
<path d="M294.24 135.502C307.862 161.839 307.862 174.554 294.24 206.341M307.862 116.43C337.833 145.492 334.2 199.076 307.862 225.413M168 207.249V136.41H214.318L269.508 93.2927C270.701 92.361 272.443 93.2107 272.443 94.7241V247.21C272.443 248.707 270.734 249.561 269.537 248.663L214.318 207.249H168Z" stroke="#2A2A2A" stroke-width="12.7148" stroke-linecap="round"/>
<path d="M139.84 319.744H150.432V324H134.336V302.88H139.84V319.744ZM160.823 324.32C159.052 324.32 157.516 323.989 156.215 323.328C154.935 322.667 153.943 321.717 153.239 320.48C152.535 319.243 152.183 317.749 152.183 316C152.183 314.251 152.535 312.757 153.239 311.52C153.943 310.283 154.924 309.333 156.183 308.672C157.463 308.011 158.924 307.68 160.567 307.68C162.252 307.68 163.681 308.011 164.855 308.672C166.049 309.312 166.956 310.208 167.575 311.36C168.193 312.491 168.503 313.792 168.503 315.264C168.503 315.648 168.492 316.032 168.471 316.416C168.449 316.8 168.417 317.12 168.375 317.376H155.703V314.464H165.975L163.383 315.456C163.383 314.176 163.148 313.195 162.679 312.512C162.231 311.829 161.527 311.488 160.567 311.488C159.884 311.488 159.297 311.648 158.807 311.968C158.337 312.288 157.975 312.789 157.719 313.472C157.484 314.155 157.367 315.029 157.367 316.096C157.367 317.141 157.505 317.995 157.783 318.656C158.06 319.296 158.455 319.765 158.967 320.064C159.479 320.341 160.097 320.48 160.823 320.48C161.633 320.48 162.273 320.32 162.743 320C163.233 319.68 163.596 319.232 163.831 318.656L168.183 320.096C167.884 321.013 167.361 321.792 166.615 322.432C165.889 323.051 165.015 323.52 163.991 323.84C162.988 324.16 161.932 324.32 160.823 324.32ZM174.266 306.144C173.156 306.144 172.346 305.941 171.834 305.536C171.343 305.109 171.098 304.448 171.098 303.552C171.098 302.635 171.343 301.973 171.834 301.568C172.346 301.141 173.156 300.928 174.266 300.928C175.354 300.928 176.154 301.141 176.666 301.568C177.178 301.973 177.434 302.635 177.434 303.552C177.434 304.448 177.178 305.109 176.666 305.536C176.154 305.941 175.354 306.144 174.266 306.144ZM176.986 308V324H171.546V308H176.986ZM187.546 302.912V318.304C187.546 319.072 187.728 319.627 188.09 319.968C188.474 320.288 188.997 320.448 189.658 320.448C190.17 320.448 190.608 320.395 190.97 320.288C191.354 320.16 191.696 319.979 191.994 319.744L192.57 323.104C192.037 323.488 191.365 323.787 190.554 324C189.744 324.213 188.912 324.32 188.058 324.32C186.842 324.32 185.786 324.149 184.89 323.808C184.016 323.467 183.333 322.923 182.842 322.176C182.373 321.429 182.128 320.437 182.106 319.2V304.416L187.546 302.912ZM192.314 308V311.872H179.354V308H192.314ZM202.443 307.68C204.128 307.68 205.6 308.011 206.859 308.672C208.139 309.312 209.131 310.261 209.835 311.52C210.56 312.757 210.923 314.251 210.923 316C210.923 317.749 210.56 319.253 209.835 320.512C209.131 321.749 208.139 322.699 206.859 323.36C205.6 324 204.128 324.32 202.443 324.32C200.8 324.32 199.339 324 198.059 323.36C196.779 322.699 195.776 321.749 195.051 320.512C194.347 319.253 193.995 317.749 193.995 316C193.995 314.251 194.347 312.757 195.051 311.52C195.776 310.261 196.779 309.312 198.059 308.672C199.339 308.011 200.8 307.68 202.443 307.68ZM202.443 311.552C201.824 311.552 201.291 311.701 200.843 312C200.395 312.299 200.054 312.779 199.819 313.44C199.584 314.101 199.467 314.955 199.467 316C199.467 317.045 199.584 317.899 199.819 318.56C200.054 319.2 200.395 319.68 200.843 320C201.291 320.299 201.824 320.448 202.443 320.448C203.083 320.448 203.627 320.299 204.075 320C204.523 319.68 204.864 319.2 205.099 318.56C205.334 317.899 205.451 317.045 205.451 316C205.451 314.955 205.334 314.101 205.099 313.44C204.864 312.779 204.523 312.299 204.075 312C203.627 311.701 203.083 311.552 202.443 311.552ZM213.983 324V308H218.783L219.007 311.456C219.413 310.261 220.01 309.333 220.799 308.672C221.61 308.011 222.634 307.68 223.871 307.68C224.277 307.68 224.618 307.712 224.895 307.776C225.194 307.84 225.429 307.925 225.599 308.032L225.055 312.512C224.842 312.427 224.565 312.363 224.223 312.32C223.903 312.256 223.509 312.224 223.039 312.224C222.399 312.224 221.802 312.363 221.247 312.64C220.693 312.917 220.245 313.333 219.903 313.888C219.583 314.421 219.423 315.104 219.423 315.936V324H213.983ZM242.278 324.32C240.955 324.32 239.792 324 238.79 323.36C237.808 322.699 237.04 321.749 236.486 320.512C235.952 319.275 235.686 317.792 235.686 316.064C235.686 314.272 235.963 312.757 236.518 311.52C237.094 310.283 237.883 309.333 238.886 308.672C239.91 308.011 241.083 307.68 242.406 307.68C243.856 307.68 245.019 308.128 245.894 309.024C246.79 309.899 247.366 311.019 247.622 312.384L247.11 313.056V301.216H252.55V324H247.686L247.334 318.56L247.974 319.04C247.846 320.107 247.515 321.035 246.982 321.824C246.47 322.613 245.808 323.232 244.998 323.68C244.208 324.107 243.302 324.32 242.278 324.32ZM244.166 320.32C244.784 320.32 245.307 320.16 245.734 319.84C246.182 319.499 246.523 318.997 246.758 318.336C246.992 317.675 247.11 316.864 247.11 315.904C247.11 315.008 246.992 314.251 246.758 313.632C246.544 312.992 246.214 312.512 245.766 312.192C245.339 311.851 244.816 311.68 244.198 311.68C243.259 311.68 242.512 312.032 241.958 312.736C241.424 313.419 241.158 314.507 241.158 316C241.158 317.493 241.424 318.592 241.958 319.296C242.491 319.979 243.227 320.32 244.166 320.32ZM264.26 324.32C262.489 324.32 260.953 323.989 259.652 323.328C258.372 322.667 257.38 321.717 256.676 320.48C255.972 319.243 255.62 317.749 255.62 316C255.62 314.251 255.972 312.757 256.676 311.52C257.38 310.283 258.361 309.333 259.62 308.672C260.9 308.011 262.361 307.68 264.004 307.68C265.689 307.68 267.119 308.011 268.292 308.672C269.487 309.312 270.393 310.208 271.012 311.36C271.631 312.491 271.94 313.792 271.94 315.264C271.94 315.648 271.929 316.032 271.908 316.416C271.887 316.8 271.855 317.12 271.812 317.376H259.14V314.464H269.412L266.82 315.456C266.82 314.176 266.585 313.195 266.116 312.512C265.668 311.829 264.964 311.488 264.004 311.488C263.321 311.488 262.735 311.648 262.244 311.968C261.775 312.288 261.412 312.789 261.156 313.472C260.921 314.155 260.804 315.029 260.804 316.096C260.804 317.141 260.943 317.995 261.22 318.656C261.497 319.296 261.892 319.765 262.404 320.064C262.916 320.341 263.535 320.48 264.26 320.48C265.071 320.48 265.711 320.32 266.18 320C266.671 319.68 267.033 319.232 267.268 318.656L271.62 320.096C271.321 321.013 270.799 321.792 270.052 322.432C269.327 323.051 268.452 323.52 267.428 323.84C266.425 324.16 265.369 324.32 264.26 324.32ZM290.578 302.912V318.304C290.578 319.072 290.759 319.627 291.122 319.968C291.506 320.288 292.028 320.448 292.69 320.448C293.202 320.448 293.639 320.395 294.002 320.288C294.386 320.16 294.727 319.979 295.026 319.744L295.602 323.104C295.068 323.488 294.396 323.787 293.586 324C292.775 324.213 291.943 324.32 291.09 324.32C289.874 324.32 288.818 324.149 287.922 323.808C287.047 323.467 286.364 322.923 285.874 322.176C285.404 321.429 285.159 320.437 285.138 319.2V304.416L290.578 302.912ZM295.346 308V311.872H282.386V308H295.346ZM305.666 324.32C303.896 324.32 302.36 323.989 301.058 323.328C299.778 322.667 298.786 321.717 298.082 320.48C297.378 319.243 297.026 317.749 297.026 316C297.026 314.251 297.378 312.757 298.082 311.52C298.786 310.283 299.768 309.333 301.026 308.672C302.306 308.011 303.768 307.68 305.41 307.68C307.096 307.68 308.525 308.011 309.698 308.672C310.893 309.312 311.8 310.208 312.418 311.36C313.037 312.491 313.346 313.792 313.346 315.264C313.346 315.648 313.336 316.032 313.314 316.416C313.293 316.8 313.261 317.12 313.218 317.376H300.546V314.464H310.818L308.226 315.456C308.226 314.176 307.992 313.195 307.522 312.512C307.074 311.829 306.37 311.488 305.41 311.488C304.728 311.488 304.141 311.648 303.65 311.968C303.181 312.288 302.818 312.789 302.562 313.472C302.328 314.155 302.21 315.029 302.21 316.096C302.21 317.141 302.349 317.995 302.626 318.656C302.904 319.296 303.298 319.765 303.81 320.064C304.322 320.341 304.941 320.48 305.666 320.48C306.477 320.48 307.117 320.32 307.586 320C308.077 319.68 308.44 319.232 308.674 318.656L313.026 320.096C312.728 321.013 312.205 321.792 311.458 322.432C310.733 323.051 309.858 323.52 308.834 323.84C307.832 324.16 306.776 324.32 305.666 324.32ZM320.281 308L324.185 315.2L325.977 315.04L332.281 324H326.041L322.009 316.704H320.121L314.009 308H320.281ZM332.153 308L326.105 316.64L324.089 316.512L319.897 324H313.785L320.217 314.976L322.073 315.232L326.041 308H332.153ZM341.109 302.912V318.304C341.109 319.072 341.29 319.627 341.653 319.968C342.037 320.288 342.559 320.448 343.221 320.448C343.733 320.448 344.17 320.395 344.533 320.288C344.917 320.16 345.258 319.979 345.557 319.744L346.133 323.104C345.599 323.488 344.927 323.787 344.117 324C343.306 324.213 342.474 324.32 341.621 324.32C340.405 324.32 339.349 324.149 338.453 323.808C337.578 323.467 336.895 322.923 336.405 322.176C335.935 321.429 335.69 320.437 335.669 319.2V304.416L341.109 302.912ZM345.877 308V311.872H332.917V308H345.877ZM356.006 307.68C357.691 307.68 359.163 308.011 360.422 308.672C361.702 309.312 362.694 310.261 363.398 311.52C364.123 312.757 364.486 314.251 364.486 316C364.486 317.749 364.123 319.253 363.398 320.512C362.694 321.749 361.702 322.699 360.422 323.36C359.163 324 357.691 324.32 356.006 324.32C354.363 324.32 352.902 324 351.622 323.36C350.342 322.699 349.339 321.749 348.614 320.512C347.91 319.253 347.558 317.749 347.558 316C347.558 314.251 347.91 312.757 348.614 311.52C349.339 310.261 350.342 309.312 351.622 308.672C352.902 308.011 354.363 307.68 356.006 307.68ZM356.006 311.552C355.387 311.552 354.854 311.701 354.406 312C353.958 312.299 353.616 312.779 353.382 313.44C353.147 314.101 353.03 314.955 353.03 316C353.03 317.045 353.147 317.899 353.382 318.56C353.616 319.2 353.958 319.68 354.406 320C354.854 320.299 355.387 320.448 356.006 320.448C356.646 320.448 357.19 320.299 357.638 320C358.086 319.68 358.427 319.2 358.662 318.56C358.896 317.899 359.014 317.045 359.014 316C359.014 314.955 358.896 314.101 358.662 313.44C358.427 312.779 358.086 312.299 357.638 312C357.19 311.701 356.646 311.552 356.006 311.552Z" fill="black"/>
</g>
<defs>
<filter id="filter0_d_101_225" x="0.700001" y="0.700001" width="496.6" height="396.6" filterUnits="userSpaceOnUse" color-interpolation-filters="sRGB">
<feFlood flood-opacity="0" result="BackgroundImageFix"/>
<feColorMatrix in="SourceAlpha" type="matrix" values="0 0 0 0 0 0 0 0 0 0 0 0 0 0 0 0 0 0 127 0" result="hardAlpha"/>
<feOffset dy="4"/>
<feGaussianBlur stdDeviation="9.65"/>
<feComposite in2="hardAlpha" operator="out"/>
<feColorMatrix type="matrix" values="0 0 0 0 0 0 0 0 0 0 0 0 0 0 0 0 0 0 0.75 0"/>
<feBlend mode="normal" in2="BackgroundImageFix" result="effect1_dropShadow_101_225"/>
<feBlend mode="normal" in="SourceGraphic" in2="effect1_dropShadow_101_225" result="shape"/>
</filter>
</defs>
</svg>
