<svg width="498" height="398" viewBox="0 0 498 398" fill="none" xmlns="http://www.w3.org/2000/svg">
<g filter="url(#filter0_d_101_226)">
<rect x="22" y="18" width="454" height="354" rx="21" stroke="black" stroke-width="4" shape-rendering="crispEdges"/>
<path d="M286.474 188.99L334.025 236.541C336.22 238.737 336.22 242.296 334.025 244.491L317.277 261.239C315.795 262.721 313.385 262.699 311.93 261.19L263.989 211.474" stroke="#2A2A2A" stroke-width="11.4839" stroke-linecap="round"/>
<path d="M231.2 90.6211C267.561 90.6211 296.779 119.283 296.779 154.326C296.779 166.624 293.197 178.101 286.982 187.84C285.647 189.932 284.19 191.944 282.621 193.867C277.901 199.651 272.166 204.626 265.673 208.531C255.667 214.55 243.864 218.032 231.2 218.032C194.84 218.032 165.621 189.369 165.621 154.326C165.621 119.283 194.84 90.6211 231.2 90.6211Z" stroke="#2A2A2A" stroke-width="11.2421" stroke-linejoin="round"/>
<path d="M217.84 319.744H228.432V324H212.336V302.88H217.84V319.744ZM236.485 324.32C235.397 324.32 234.437 324.139 233.605 323.776C232.794 323.392 232.154 322.784 231.685 321.952C231.216 321.12 230.981 320.032 230.981 318.688V308H236.421V317.408C236.421 318.432 236.624 319.147 237.029 319.552C237.434 319.957 238.01 320.16 238.757 320.16C239.141 320.16 239.504 320.096 239.845 319.968C240.186 319.819 240.485 319.605 240.741 319.328C240.997 319.029 241.189 318.656 241.317 318.208C241.466 317.739 241.541 317.195 241.541 316.576V308H246.981V324H242.117L241.957 320.992C241.445 322.123 240.73 322.965 239.813 323.52C238.896 324.053 237.786 324.32 236.485 324.32ZM250.89 330.72V308H255.786L256.074 313.792L255.434 313.12C255.583 312.053 255.914 311.115 256.426 310.304C256.938 309.493 257.599 308.853 258.41 308.384C259.22 307.915 260.148 307.68 261.194 307.68C262.516 307.68 263.668 308.011 264.65 308.672C265.631 309.312 266.388 310.251 266.922 311.488C267.476 312.704 267.753 314.187 267.753 315.936C267.753 317.685 267.476 319.189 266.922 320.448C266.367 321.707 265.588 322.667 264.586 323.328C263.604 323.989 262.452 324.32 261.13 324.32C259.679 324.32 258.506 323.893 257.61 323.04C256.714 322.165 256.116 321.067 255.818 319.744L256.33 318.976V330.72H250.89ZM259.274 320.32C260.212 320.32 260.948 319.979 261.482 319.296C262.015 318.592 262.282 317.493 262.282 316C262.282 314.507 262.015 313.419 261.482 312.736C260.97 312.032 260.244 311.68 259.306 311.68C258.708 311.68 258.186 311.851 257.738 312.192C257.29 312.512 256.938 312.992 256.682 313.632C256.447 314.272 256.33 315.061 256.33 316C256.33 316.896 256.436 317.675 256.65 318.336C256.884 318.976 257.226 319.467 257.674 319.808C258.122 320.149 258.655 320.32 259.274 320.32ZM279.724 313.856C279.724 313.109 279.51 312.523 279.084 312.096C278.678 311.648 278.124 311.424 277.42 311.424C276.716 311.424 276.108 311.605 275.596 311.968C275.105 312.309 274.764 312.928 274.572 313.824L269.964 312.736C270.262 311.2 271.052 309.973 272.332 309.056C273.612 308.139 275.414 307.68 277.74 307.68C279.297 307.68 280.62 307.915 281.708 308.384C282.817 308.832 283.66 309.515 284.236 310.432C284.833 311.328 285.132 312.437 285.132 313.76V319.616C285.132 320.448 285.505 320.864 286.252 320.864C286.636 320.864 286.945 320.821 287.18 320.736L286.86 323.84C286.22 324.139 285.441 324.288 284.524 324.288C283.692 324.288 282.956 324.16 282.316 323.904C281.676 323.627 281.174 323.221 280.812 322.688C280.449 322.133 280.268 321.44 280.268 320.608V320.416L280.876 320.192C280.876 321.109 280.598 321.877 280.044 322.496C279.51 323.115 278.806 323.573 277.932 323.872C277.078 324.171 276.182 324.32 275.244 324.32C274.156 324.32 273.206 324.149 272.396 323.808C271.585 323.467 270.956 322.976 270.508 322.336C270.081 321.675 269.868 320.864 269.868 319.904C269.868 318.752 270.209 317.803 270.892 317.056C271.596 316.288 272.694 315.755 274.188 315.456L280.236 314.208L280.204 317.088L277.132 317.728C276.492 317.856 276.012 318.048 275.692 318.304C275.393 318.539 275.244 318.901 275.244 319.392C275.244 319.861 275.414 320.213 275.756 320.448C276.097 320.683 276.502 320.8 276.972 320.8C277.334 320.8 277.676 320.747 277.996 320.64C278.337 320.533 278.636 320.373 278.892 320.16C279.148 319.925 279.35 319.637 279.5 319.296C279.649 318.955 279.724 318.549 279.724 318.08V313.856Z" fill="black"/>
</g>
<defs>
<filter id="filter0_d_101_226" x="0.700001" y="0.700001" width="496.6" height="396.6" filterUnits="userSpaceOnUse" color-interpolation-filters="sRGB">
<feFlood flood-opacity="0" result="BackgroundImageFix"/>
<feColorMatrix in="SourceAlpha" type="matrix" values="0 0 0 0 0 0 0 0 0 0 0 0 0 0 0 0 0 0 127 0" result="hardAlpha"/>
<feOffset dy="4"/>
<feGaussianBlur stdDeviation="9.65"/>
<feComposite in2="hardAlpha" operator="out"/>
<feColorMatrix type="matrix" values="0 0 0 0 0 0 0 0 0 0 0 0 0 0 0 0 0 0 0.75 0"/>
<feBlend mode="normal" in2="BackgroundImageFix" result="effect1_dropShadow_101_226"/>
<feBlend mode="normal" in="SourceGraphic" in2="effect1_dropShadow_101_226" result="shape"/>
</filter>
</defs>
</svg>
