<svg width="498" height="372" viewBox="0 0 498 372" fill="none" xmlns="http://www.w3.org/2000/svg">
<g filter="url(#filter0_d_101_231)">
<rect x="22" y="18" width="454" height="328.698" rx="21" stroke="black" stroke-width="4" shape-rendering="crispEdges"/>
<path d="M198.449 206.275H299.399M198.449 186.5H299.399M198.449 166.5H299.399M198.449 146H299.399M198.449 125.5H299.399M198.449 94H227M251 94H299.399M324 69.6966V235.118C324 236.055 323.24 236.815 322.303 236.815H174.697C173.76 236.815 173 236.055 173 235.118V69.6966C173 68.7596 173.76 68 174.697 68H322.303C323.24 68 324 68.7596 324 69.6966Z" stroke="#2A2A2A" stroke-width="13.573" stroke-linecap="round"/>
<path d="M150.784 294.88V316H145.92V306.304L146.08 299.808H146.016L140.8 316H136.352L131.136 299.808H131.072L131.232 306.304V316H126.336V294.88H134.176L137.504 305.632L138.688 310.112H138.752L139.968 305.664L143.264 294.88H150.784ZM162.599 299.68C164.285 299.68 165.757 300.011 167.015 300.672C168.295 301.312 169.287 302.261 169.991 303.52C170.717 304.757 171.079 306.251 171.079 308C171.079 309.749 170.717 311.253 169.991 312.512C169.287 313.749 168.295 314.699 167.015 315.36C165.757 316 164.285 316.32 162.599 316.32C160.957 316.32 159.495 316 158.215 315.36C156.935 314.699 155.933 313.749 155.207 312.512C154.503 311.253 154.151 309.749 154.151 308C154.151 306.251 154.503 304.757 155.207 303.52C155.933 302.261 156.935 301.312 158.215 300.672C159.495 300.011 160.957 299.68 162.599 299.68ZM162.599 303.552C161.981 303.552 161.447 303.701 160.999 304C160.551 304.299 160.21 304.779 159.975 305.44C159.741 306.101 159.623 306.955 159.623 308C159.623 309.045 159.741 309.899 159.975 310.56C160.21 311.2 160.551 311.68 160.999 312C161.447 312.299 161.981 312.448 162.599 312.448C163.239 312.448 163.783 312.299 164.231 312C164.679 311.68 165.021 311.2 165.255 310.56C165.49 309.899 165.607 309.045 165.607 308C165.607 306.955 165.49 306.101 165.255 305.44C165.021 304.779 164.679 304.299 164.231 304C163.783 303.701 163.239 303.552 162.599 303.552ZM180.028 316.32C178.705 316.32 177.542 316 176.54 315.36C175.558 314.699 174.79 313.749 174.236 312.512C173.702 311.275 173.436 309.792 173.436 308.064C173.436 306.272 173.713 304.757 174.268 303.52C174.844 302.283 175.633 301.333 176.636 300.672C177.66 300.011 178.833 299.68 180.156 299.68C181.606 299.68 182.769 300.128 183.644 301.024C184.54 301.899 185.116 303.019 185.372 304.384L184.86 305.056V293.216H190.3V316H185.436L185.084 310.56L185.724 311.04C185.596 312.107 185.265 313.035 184.732 313.824C184.22 314.613 183.558 315.232 182.748 315.68C181.958 316.107 181.052 316.32 180.028 316.32ZM181.916 312.32C182.534 312.32 183.057 312.16 183.484 311.84C183.932 311.499 184.273 310.997 184.508 310.336C184.742 309.675 184.86 308.864 184.86 307.904C184.86 307.008 184.742 306.251 184.508 305.632C184.294 304.992 183.964 304.512 183.516 304.192C183.089 303.851 182.566 303.68 181.948 303.68C181.009 303.68 180.262 304.032 179.708 304.736C179.174 305.419 178.908 306.507 178.908 308C178.908 309.493 179.174 310.592 179.708 311.296C180.241 311.979 180.977 312.32 181.916 312.32ZM201.818 299.68C203.503 299.68 204.975 300.011 206.234 300.672C207.514 301.312 208.506 302.261 209.21 303.52C209.935 304.757 210.298 306.251 210.298 308C210.298 309.749 209.935 311.253 209.21 312.512C208.506 313.749 207.514 314.699 206.234 315.36C204.975 316 203.503 316.32 201.818 316.32C200.175 316.32 198.714 316 197.434 315.36C196.154 314.699 195.151 313.749 194.426 312.512C193.722 311.253 193.37 309.749 193.37 308C193.37 306.251 193.722 304.757 194.426 303.52C195.151 302.261 196.154 301.312 197.434 300.672C198.714 300.011 200.175 299.68 201.818 299.68ZM201.818 303.552C201.199 303.552 200.666 303.701 200.218 304C199.77 304.299 199.429 304.779 199.194 305.44C198.959 306.101 198.842 306.955 198.842 308C198.842 309.045 198.959 309.899 199.194 310.56C199.429 311.2 199.77 311.68 200.218 312C200.666 312.299 201.199 312.448 201.818 312.448C202.458 312.448 203.002 312.299 203.45 312C203.898 311.68 204.239 311.2 204.474 310.56C204.709 309.899 204.826 309.045 204.826 308C204.826 306.955 204.709 306.101 204.474 305.44C204.239 304.779 203.898 304.299 203.45 304C203.002 303.701 202.458 303.552 201.818 303.552ZM228.403 316.32C227.08 316.32 225.917 316 224.915 315.36C223.933 314.699 223.165 313.749 222.611 312.512C222.077 311.275 221.811 309.792 221.811 308.064C221.811 306.272 222.088 304.757 222.643 303.52C223.219 302.283 224.008 301.333 225.011 300.672C226.035 300.011 227.208 299.68 228.531 299.68C229.981 299.68 231.144 300.128 232.019 301.024C232.915 301.899 233.491 303.019 233.747 304.384L233.235 305.056V293.216H238.675V316H233.811L233.459 310.56L234.099 311.04C233.971 312.107 233.64 313.035 233.107 313.824C232.595 314.613 231.933 315.232 231.123 315.68C230.333 316.107 229.427 316.32 228.403 316.32ZM230.291 312.32C230.909 312.32 231.432 312.16 231.859 311.84C232.307 311.499 232.648 310.997 232.883 310.336C233.117 309.675 233.235 308.864 233.235 307.904C233.235 307.008 233.117 306.251 232.883 305.632C232.669 304.992 232.339 304.512 231.891 304.192C231.464 303.851 230.941 303.68 230.323 303.68C229.384 303.68 228.637 304.032 228.083 304.736C227.549 305.419 227.283 306.507 227.283 308C227.283 309.493 227.549 310.592 228.083 311.296C228.616 311.979 229.352 312.32 230.291 312.32ZM250.385 316.32C248.614 316.32 247.078 315.989 245.777 315.328C244.497 314.667 243.505 313.717 242.801 312.48C242.097 311.243 241.745 309.749 241.745 308C241.745 306.251 242.097 304.757 242.801 303.52C243.505 302.283 244.486 301.333 245.745 300.672C247.025 300.011 248.486 299.68 250.129 299.68C251.814 299.68 253.244 300.011 254.417 300.672C255.612 301.312 256.518 302.208 257.137 303.36C257.756 304.491 258.065 305.792 258.065 307.264C258.065 307.648 258.054 308.032 258.033 308.416C258.012 308.8 257.98 309.12 257.937 309.376H245.265V306.464H255.537L252.945 307.456C252.945 306.176 252.71 305.195 252.241 304.512C251.793 303.829 251.089 303.488 250.129 303.488C249.446 303.488 248.86 303.648 248.369 303.968C247.9 304.288 247.537 304.789 247.281 305.472C247.046 306.155 246.929 307.029 246.929 308.096C246.929 309.141 247.068 309.995 247.345 310.656C247.622 311.296 248.017 311.765 248.529 312.064C249.041 312.341 249.66 312.48 250.385 312.48C251.196 312.48 251.836 312.32 252.305 312C252.796 311.68 253.158 311.232 253.393 310.656L257.745 312.096C257.446 313.013 256.924 313.792 256.177 314.432C255.452 315.051 254.577 315.52 253.553 315.84C252.55 316.16 251.494 316.32 250.385 316.32ZM275.641 293.216V310.56C275.641 311.264 275.758 311.765 275.993 312.064C276.227 312.363 276.622 312.512 277.177 312.512C277.497 312.512 277.763 312.491 277.977 312.448C278.19 312.405 278.446 312.341 278.745 312.256L278.393 315.52C278.009 315.755 277.507 315.947 276.889 316.096C276.27 316.245 275.662 316.32 275.065 316.32C273.358 316.32 272.121 315.925 271.353 315.136C270.585 314.347 270.201 313.056 270.201 311.264V293.216H275.641ZM288.541 316.32C286.771 316.32 285.235 315.989 283.933 315.328C282.653 314.667 281.661 313.717 280.957 312.48C280.253 311.243 279.901 309.749 279.901 308C279.901 306.251 280.253 304.757 280.957 303.52C281.661 302.283 282.643 301.333 283.901 300.672C285.181 300.011 286.643 299.68 288.285 299.68C289.971 299.68 291.4 300.011 292.573 300.672C293.768 301.312 294.675 302.208 295.293 303.36C295.912 304.491 296.221 305.792 296.221 307.264C296.221 307.648 296.211 308.032 296.189 308.416C296.168 308.8 296.136 309.12 296.093 309.376H283.421V306.464H293.693L291.101 307.456C291.101 306.176 290.867 305.195 290.397 304.512C289.949 303.829 289.245 303.488 288.285 303.488C287.603 303.488 287.016 303.648 286.525 303.968C286.056 304.288 285.693 304.789 285.437 305.472C285.203 306.155 285.085 307.029 285.085 308.096C285.085 309.141 285.224 309.995 285.501 310.656C285.779 311.296 286.173 311.765 286.685 312.064C287.197 312.341 287.816 312.48 288.541 312.48C289.352 312.48 289.992 312.32 290.461 312C290.952 311.68 291.315 311.232 291.549 310.656L295.901 312.096C295.603 313.013 295.08 313.792 294.333 314.432C293.608 315.051 292.733 315.52 291.709 315.84C290.707 316.16 289.651 316.32 288.541 316.32ZM301.985 298.144C300.875 298.144 300.065 297.941 299.553 297.536C299.062 297.109 298.817 296.448 298.817 295.552C298.817 294.635 299.062 293.973 299.553 293.568C300.065 293.141 300.875 292.928 301.985 292.928C303.073 292.928 303.873 293.141 304.385 293.568C304.897 293.973 305.153 294.635 305.153 295.552C305.153 296.448 304.897 297.109 304.385 297.536C303.873 297.941 303.073 298.144 301.985 298.144ZM304.705 300V316H299.265V300H304.705ZM315.265 294.912V310.304C315.265 311.072 315.446 311.627 315.809 311.968C316.193 312.288 316.716 312.448 317.377 312.448C317.889 312.448 318.326 312.395 318.689 312.288C319.073 312.16 319.414 311.979 319.713 311.744L320.289 315.104C319.756 315.488 319.084 315.787 318.273 316C317.462 316.213 316.63 316.32 315.777 316.32C314.561 316.32 313.505 316.149 312.609 315.808C311.734 315.467 311.052 314.923 310.561 314.176C310.092 313.429 309.846 312.437 309.825 311.2V296.416L315.265 294.912ZM320.033 300V303.872H307.073V300H320.033ZM327.954 316.32C326.866 316.32 325.906 316.139 325.074 315.776C324.263 315.392 323.623 314.784 323.154 313.952C322.684 313.12 322.45 312.032 322.45 310.688V300H327.89V309.408C327.89 310.432 328.092 311.147 328.498 311.552C328.903 311.957 329.479 312.16 330.226 312.16C330.61 312.16 330.972 312.096 331.314 311.968C331.655 311.819 331.954 311.605 332.21 311.328C332.466 311.029 332.658 310.656 332.786 310.208C332.935 309.739 333.01 309.195 333.01 308.576V300H338.45V316H333.586L333.426 312.992C332.914 314.123 332.199 314.965 331.282 315.52C330.364 316.053 329.255 316.32 327.954 316.32ZM342.358 316V300H347.158L347.382 303.456C347.788 302.261 348.385 301.333 349.174 300.672C349.985 300.011 351.009 299.68 352.246 299.68C352.652 299.68 352.993 299.712 353.27 299.776C353.569 299.84 353.804 299.925 353.974 300.032L353.43 304.512C353.217 304.427 352.94 304.363 352.598 304.32C352.278 304.256 351.884 304.224 351.414 304.224C350.774 304.224 350.177 304.363 349.622 304.64C349.068 304.917 348.62 305.333 348.278 305.888C347.958 306.421 347.798 307.104 347.798 307.936V316H342.358ZM364.88 305.856C364.88 305.109 364.667 304.523 364.24 304.096C363.835 303.648 363.28 303.424 362.576 303.424C361.872 303.424 361.264 303.605 360.752 303.968C360.261 304.309 359.92 304.928 359.728 305.824L355.12 304.736C355.419 303.2 356.208 301.973 357.488 301.056C358.768 300.139 360.571 299.68 362.896 299.68C364.453 299.68 365.776 299.915 366.864 300.384C367.973 300.832 368.816 301.515 369.392 302.432C369.989 303.328 370.288 304.437 370.288 305.76V311.616C370.288 312.448 370.661 312.864 371.408 312.864C371.792 312.864 372.101 312.821 372.336 312.736L372.016 315.84C371.376 316.139 370.597 316.288 369.68 316.288C368.848 316.288 368.112 316.16 367.472 315.904C366.832 315.627 366.331 315.221 365.968 314.688C365.605 314.133 365.424 313.44 365.424 312.608V312.416L366.032 312.192C366.032 313.109 365.755 313.877 365.2 314.496C364.667 315.115 363.963 315.573 363.088 315.872C362.235 316.171 361.339 316.32 360.4 316.32C359.312 316.32 358.363 316.149 357.552 315.808C356.741 315.467 356.112 314.976 355.664 314.336C355.237 313.675 355.024 312.864 355.024 311.904C355.024 310.752 355.365 309.803 356.048 309.056C356.752 308.288 357.851 307.755 359.344 307.456L365.392 306.208L365.36 309.088L362.288 309.728C361.648 309.856 361.168 310.048 360.848 310.304C360.549 310.539 360.4 310.901 360.4 311.392C360.4 311.861 360.571 312.213 360.912 312.448C361.253 312.683 361.659 312.8 362.128 312.8C362.491 312.8 362.832 312.747 363.152 312.64C363.493 312.533 363.792 312.373 364.048 312.16C364.304 311.925 364.507 311.637 364.656 311.296C364.805 310.955 364.88 310.549 364.88 310.08V305.856Z" fill="black"/>
</g>
<defs>
<filter id="filter0_d_101_231" x="0.700001" y="0.700001" width="496.6" height="371.298" filterUnits="userSpaceOnUse" color-interpolation-filters="sRGB">
<feFlood flood-opacity="0" result="BackgroundImageFix"/>
<feColorMatrix in="SourceAlpha" type="matrix" values="0 0 0 0 0 0 0 0 0 0 0 0 0 0 0 0 0 0 127 0" result="hardAlpha"/>
<feOffset dy="4"/>
<feGaussianBlur stdDeviation="9.65"/>
<feComposite in2="hardAlpha" operator="out"/>
<feColorMatrix type="matrix" values="0 0 0 0 0 0 0 0 0 0 0 0 0 0 0 0 0 0 0.75 0"/>
<feBlend mode="normal" in2="BackgroundImageFix" result="effect1_dropShadow_101_231"/>
<feBlend mode="normal" in="SourceGraphic" in2="effect1_dropShadow_101_231" result="shape"/>
</filter>
</defs>
</svg>
