<svg width="498" height="372" viewBox="0 0 498 372" fill="none" xmlns="http://www.w3.org/2000/svg">
<g filter="url(#filter0_d_101_233)">
<rect x="22" y="18" width="454" height="328.698" rx="21" stroke="black" stroke-width="4" shape-rendering="crispEdges"/>
<path d="M196.763 199H299.196M156.681 162.258H187.856M217.918 162.258H219.031M247.98 162.258H249.093M279.155 162.258H280.268M311.444 162.258H342.619M156.681 127.742H157.794M186.743 127.742H187.856M217.918 127.742H219.031M250.207 127.742H251.32M280.268 127.742H281.382M311.444 127.742H312.557M341.505 127.742H342.619M156.681 91H157.794M186.743 91H187.856M217.918 91H219.031M250.207 91H251.32M280.268 91H281.382M311.444 91H312.557M341.505 91H342.619" stroke="#2A2A2A" stroke-width="23.2362" stroke-miterlimit="3.32551" stroke-linecap="square"/>
<path d="M149.096 292.88V297.136H142.216V314H136.712V297.136H129.8V292.88H149.096ZM156.698 314.32C154.927 314.32 153.391 313.989 152.09 313.328C150.81 312.667 149.818 311.717 149.114 310.48C148.41 309.243 148.058 307.749 148.058 306C148.058 304.251 148.41 302.757 149.114 301.52C149.818 300.283 150.799 299.333 152.058 298.672C153.338 298.011 154.799 297.68 156.442 297.68C158.127 297.68 159.556 298.011 160.73 298.672C161.924 299.312 162.831 300.208 163.45 301.36C164.068 302.491 164.378 303.792 164.378 305.264C164.378 305.648 164.367 306.032 164.346 306.416C164.324 306.8 164.292 307.12 164.25 307.376H151.578V304.464H161.85L159.258 305.456C159.258 304.176 159.023 303.195 158.554 302.512C158.106 301.829 157.402 301.488 156.442 301.488C155.759 301.488 155.172 301.648 154.682 301.968C154.212 302.288 153.85 302.789 153.594 303.472C153.359 304.155 153.242 305.029 153.242 306.096C153.242 307.141 153.38 307.995 153.658 308.656C153.935 309.296 154.33 309.765 154.842 310.064C155.354 310.341 155.972 310.48 156.698 310.48C157.508 310.48 158.148 310.32 158.618 310C159.108 309.68 159.471 309.232 159.706 308.656L164.058 310.096C163.759 311.013 163.236 311.792 162.49 312.432C161.764 313.051 160.89 313.52 159.866 313.84C158.863 314.16 157.807 314.32 156.698 314.32ZM175.005 297.68C176.626 297.68 177.97 297.915 179.037 298.384C180.125 298.832 180.967 299.44 181.565 300.208C182.183 300.955 182.567 301.765 182.717 302.64L177.693 304.304C177.543 303.387 177.266 302.704 176.861 302.256C176.477 301.787 175.911 301.552 175.165 301.552C174.482 301.552 173.906 301.712 173.437 302.032C172.989 302.331 172.647 302.821 172.413 303.504C172.178 304.165 172.061 305.019 172.061 306.064C172.061 307.109 172.189 307.963 172.445 308.624C172.701 309.264 173.063 309.733 173.533 310.032C174.002 310.309 174.557 310.448 175.197 310.448C175.73 310.448 176.167 310.352 176.509 310.16C176.871 309.947 177.17 309.648 177.405 309.264C177.639 308.88 177.789 308.411 177.853 307.856L182.749 309.424C182.599 310.363 182.194 311.205 181.533 311.952C180.893 312.677 180.039 313.253 178.973 313.68C177.906 314.107 176.658 314.32 175.229 314.32C173.479 314.32 171.954 314 170.653 313.36C169.351 312.699 168.349 311.749 167.645 310.512C166.941 309.253 166.589 307.749 166.589 306C166.589 304.251 166.941 302.757 167.645 301.52C168.349 300.261 169.33 299.312 170.589 298.672C171.869 298.011 173.341 297.68 175.005 297.68ZM190.953 291.216V308.56C190.953 309.264 191.07 309.765 191.305 310.064C191.54 310.363 191.934 310.512 192.489 310.512C192.809 310.512 193.076 310.491 193.289 310.448C193.502 310.405 193.758 310.341 194.057 310.256L193.705 313.52C193.321 313.755 192.82 313.947 192.201 314.096C191.582 314.245 190.974 314.32 190.377 314.32C188.67 314.32 187.433 313.925 186.665 313.136C185.897 312.347 185.513 311.056 185.513 309.264V291.216H190.953ZM205.224 303.856C205.224 303.109 205.01 302.523 204.584 302.096C204.178 301.648 203.624 301.424 202.92 301.424C202.216 301.424 201.608 301.605 201.096 301.968C200.605 302.309 200.264 302.928 200.072 303.824L195.464 302.736C195.762 301.2 196.552 299.973 197.832 299.056C199.112 298.139 200.914 297.68 203.24 297.68C204.797 297.68 206.12 297.915 207.208 298.384C208.317 298.832 209.16 299.515 209.736 300.432C210.333 301.328 210.632 302.437 210.632 303.76V309.616C210.632 310.448 211.005 310.864 211.752 310.864C212.136 310.864 212.445 310.821 212.68 310.736L212.36 313.84C211.72 314.139 210.941 314.288 210.024 314.288C209.192 314.288 208.456 314.16 207.816 313.904C207.176 313.627 206.674 313.221 206.312 312.688C205.949 312.133 205.768 311.44 205.768 310.608V310.416L206.376 310.192C206.376 311.109 206.098 311.877 205.544 312.496C205.01 313.115 204.306 313.573 203.432 313.872C202.578 314.171 201.682 314.32 200.744 314.32C199.656 314.32 198.706 314.149 197.896 313.808C197.085 313.467 196.456 312.976 196.008 312.336C195.581 311.675 195.368 310.864 195.368 309.904C195.368 308.752 195.709 307.803 196.392 307.056C197.096 306.288 198.194 305.755 199.688 305.456L205.736 304.208L205.704 307.088L202.632 307.728C201.992 307.856 201.512 308.048 201.192 308.304C200.893 308.539 200.744 308.901 200.744 309.392C200.744 309.861 200.914 310.213 201.256 310.448C201.597 310.683 202.002 310.8 202.472 310.8C202.834 310.8 203.176 310.747 203.496 310.64C203.837 310.533 204.136 310.373 204.392 310.16C204.648 309.925 204.85 309.637 205 309.296C205.149 308.955 205.224 308.549 205.224 308.08V303.856ZM220.59 314.32C219.267 314.32 218.105 314 217.102 313.36C216.121 312.699 215.353 311.749 214.798 310.512C214.265 309.275 213.998 307.792 213.998 306.064C213.998 304.272 214.275 302.757 214.83 301.52C215.406 300.283 216.195 299.333 217.198 298.672C218.222 298.011 219.395 297.68 220.718 297.68C222.169 297.68 223.331 298.128 224.206 299.024C225.102 299.899 225.678 301.019 225.934 302.384L225.422 303.056V291.216H230.862V314H225.998L225.646 308.56L226.286 309.04C226.158 310.107 225.827 311.035 225.294 311.824C224.782 312.613 224.121 313.232 223.31 313.68C222.521 314.107 221.614 314.32 220.59 314.32ZM222.478 310.32C223.097 310.32 223.619 310.16 224.046 309.84C224.494 309.499 224.835 308.997 225.07 308.336C225.305 307.675 225.422 306.864 225.422 305.904C225.422 305.008 225.305 304.251 225.07 303.632C224.857 302.992 224.526 302.512 224.078 302.192C223.651 301.851 223.129 301.68 222.51 301.68C221.571 301.68 220.825 302.032 220.27 302.736C219.737 303.419 219.47 304.507 219.47 306C219.47 307.493 219.737 308.592 220.27 309.296C220.803 309.979 221.539 310.32 222.478 310.32ZM242.381 297.68C244.066 297.68 245.538 298.011 246.797 298.672C248.077 299.312 249.069 300.261 249.773 301.52C250.498 302.757 250.861 304.251 250.861 306C250.861 307.749 250.498 309.253 249.773 310.512C249.069 311.749 248.077 312.699 246.797 313.36C245.538 314 244.066 314.32 242.381 314.32C240.738 314.32 239.277 314 237.997 313.36C236.717 312.699 235.714 311.749 234.989 310.512C234.285 309.253 233.933 307.749 233.933 306C233.933 304.251 234.285 302.757 234.989 301.52C235.714 300.261 236.717 299.312 237.997 298.672C239.277 298.011 240.738 297.68 242.381 297.68ZM242.381 301.552C241.762 301.552 241.229 301.701 240.781 302C240.333 302.299 239.991 302.779 239.757 303.44C239.522 304.101 239.405 304.955 239.405 306C239.405 307.045 239.522 307.899 239.757 308.56C239.991 309.2 240.333 309.68 240.781 310C241.229 310.299 241.762 310.448 242.381 310.448C243.021 310.448 243.565 310.299 244.013 310C244.461 309.68 244.802 309.2 245.037 308.56C245.271 307.899 245.389 307.045 245.389 306C245.389 304.955 245.271 304.101 245.037 303.44C244.802 302.779 244.461 302.299 244.013 302C243.565 301.701 243.021 301.552 242.381 301.552ZM281.883 292.88L274.395 314H267.931L260.411 292.88H266.203L270.075 305.648L271.227 309.808L272.347 305.712L276.283 292.88H281.883ZM286.735 296.144C285.625 296.144 284.815 295.941 284.303 295.536C283.812 295.109 283.567 294.448 283.567 293.552C283.567 292.635 283.812 291.973 284.303 291.568C284.815 291.141 285.625 290.928 286.735 290.928C287.823 290.928 288.623 291.141 289.135 291.568C289.647 291.973 289.903 292.635 289.903 293.552C289.903 294.448 289.647 295.109 289.135 295.536C288.623 295.941 287.823 296.144 286.735 296.144ZM289.455 298V314H284.015V298H289.455ZM293.327 314V298H298.127L298.351 301.456C298.756 300.261 299.354 299.333 300.143 298.672C300.954 298.011 301.978 297.68 303.215 297.68C303.62 297.68 303.962 297.712 304.239 297.776C304.538 297.84 304.772 297.925 304.943 298.032L304.399 302.512C304.186 302.427 303.908 302.363 303.567 302.32C303.247 302.256 302.852 302.224 302.383 302.224C301.743 302.224 301.146 302.363 300.591 302.64C300.036 302.917 299.588 303.333 299.247 303.888C298.927 304.421 298.767 305.104 298.767 305.936V314H293.327ZM313.359 292.912V308.304C313.359 309.072 313.54 309.627 313.903 309.968C314.287 310.288 314.809 310.448 315.471 310.448C315.983 310.448 316.42 310.395 316.783 310.288C317.167 310.16 317.508 309.979 317.807 309.744L318.383 313.104C317.849 313.488 317.177 313.787 316.367 314C315.556 314.213 314.724 314.32 313.871 314.32C312.655 314.32 311.599 314.149 310.703 313.808C309.828 313.467 309.145 312.923 308.655 312.176C308.185 311.429 307.94 310.437 307.919 309.2V294.416L313.359 292.912ZM318.127 298V301.872H305.167V298H318.127ZM326.048 314.32C324.96 314.32 324 314.139 323.168 313.776C322.357 313.392 321.717 312.784 321.248 311.952C320.778 311.12 320.544 310.032 320.544 308.688V298H325.984V307.408C325.984 308.432 326.186 309.147 326.592 309.552C326.997 309.957 327.573 310.16 328.32 310.16C328.704 310.16 329.066 310.096 329.408 309.968C329.749 309.819 330.048 309.605 330.304 309.328C330.56 309.029 330.752 308.656 330.88 308.208C331.029 307.739 331.104 307.195 331.104 306.576V298H336.544V314H331.68L331.52 310.992C331.008 312.123 330.293 312.965 329.376 313.52C328.458 314.053 327.349 314.32 326.048 314.32ZM349.38 303.856C349.38 303.109 349.167 302.523 348.74 302.096C348.335 301.648 347.78 301.424 347.076 301.424C346.372 301.424 345.764 301.605 345.252 301.968C344.761 302.309 344.42 302.928 344.228 303.824L339.62 302.736C339.919 301.2 340.708 299.973 341.988 299.056C343.268 298.139 345.071 297.68 347.396 297.68C348.953 297.68 350.276 297.915 351.364 298.384C352.473 298.832 353.316 299.515 353.892 300.432C354.489 301.328 354.788 302.437 354.788 303.76V309.616C354.788 310.448 355.161 310.864 355.908 310.864C356.292 310.864 356.601 310.821 356.836 310.736L356.516 313.84C355.876 314.139 355.097 314.288 354.18 314.288C353.348 314.288 352.612 314.16 351.972 313.904C351.332 313.627 350.831 313.221 350.468 312.688C350.105 312.133 349.924 311.44 349.924 310.608V310.416L350.532 310.192C350.532 311.109 350.255 311.877 349.7 312.496C349.167 313.115 348.463 313.573 347.588 313.872C346.735 314.171 345.839 314.32 344.9 314.32C343.812 314.32 342.863 314.149 342.052 313.808C341.241 313.467 340.612 312.976 340.164 312.336C339.737 311.675 339.524 310.864 339.524 309.904C339.524 308.752 339.865 307.803 340.548 307.056C341.252 306.288 342.351 305.755 343.844 305.456L349.892 304.208L349.86 307.088L346.788 307.728C346.148 307.856 345.668 308.048 345.348 308.304C345.049 308.539 344.9 308.901 344.9 309.392C344.9 309.861 345.071 310.213 345.412 310.448C345.753 310.683 346.159 310.8 346.628 310.8C346.991 310.8 347.332 310.747 347.652 310.64C347.993 310.533 348.292 310.373 348.548 310.16C348.804 309.925 349.007 309.637 349.156 309.296C349.305 308.955 349.38 308.549 349.38 308.08V303.856ZM364.359 291.216V308.56C364.359 309.264 364.477 309.765 364.711 310.064C364.946 310.363 365.341 310.512 365.895 310.512C366.215 310.512 366.482 310.491 366.695 310.448C366.909 310.405 367.165 310.341 367.463 310.256L367.111 313.52C366.727 313.755 366.226 313.947 365.607 314.096C364.989 314.245 364.381 314.32 363.783 314.32C362.077 314.32 360.839 313.925 360.071 313.136C359.303 312.347 358.919 311.056 358.919 309.264V291.216H364.359Z" fill="black"/>
</g>
<defs>
<filter id="filter0_d_101_233" x="0.700001" y="0.700001" width="496.6" height="371.298" filterUnits="userSpaceOnUse" color-interpolation-filters="sRGB">
<feFlood flood-opacity="0" result="BackgroundImageFix"/>
<feColorMatrix in="SourceAlpha" type="matrix" values="0 0 0 0 0 0 0 0 0 0 0 0 0 0 0 0 0 0 127 0" result="hardAlpha"/>
<feOffset dy="4"/>
<feGaussianBlur stdDeviation="9.65"/>
<feComposite in2="hardAlpha" operator="out"/>
<feColorMatrix type="matrix" values="0 0 0 0 0 0 0 0 0 0 0 0 0 0 0 0 0 0 0.75 0"/>
<feBlend mode="normal" in2="BackgroundImageFix" result="effect1_dropShadow_101_233"/>
<feBlend mode="normal" in="SourceGraphic" in2="effect1_dropShadow_101_233" result="shape"/>
</filter>
</defs>
</svg>
